<?xml version="1.0" encoding="utf-8"?>
<!-- Generator: Adobe Illustrator 21.0.0, SVG Export Plug-In . SVG Version: 6.00 Build 0)  -->
<svg version="1.1" id="Layer_1" xmlns="http://www.w3.org/2000/svg" xmlns:xlink="http://www.w3.org/1999/xlink" x="0px" y="0px"
	 viewBox="0 0 50 50" style="enable-background:new 0 0 50 50;" xml:space="preserve">
<style type="text/css">
	.st0{fill:url(#SVGID_1_);}
	.st1{fill:#FFFFFF;stroke:#0D0F21;stroke-miterlimit:10;}
	.st2{fill:#0D0F21;}
	.st3{fill:url(#SVGID_2_);}
	.st4{fill:url(#SVGID_3_);}
	.st5{fill:url(#SVGID_4_);}
	.st6{fill:url(#SVGID_5_);}
	.st7{fill:url(#SVGID_6_);}
	.st8{fill:url(#SVGID_7_);}
	.st9{fill:#592C80;}
</style>
<linearGradient id="SVGID_1_" gradientUnits="userSpaceOnUse" x1="-16.6133" y1="22.9" x2="69.5921" y2="22.9" gradientTransform="matrix(1 0 0 1 0 2)">
	<stop  offset="0" style="stop-color:#592C80;stop-opacity:0.1"/>
	<stop  offset="1" style="stop-color:#592C80;stop-opacity:0.8"/>
</linearGradient>
<path class="st0" d="M47.5,25c0-2.4-1.1-4.7-3-6.7c-1.3-1.4-2.4-2.9-3.3-4.6c-2.7-5.5-7.3-9.1-12.6-9.1c-3.7,0-7.2,1.8-9.8,4.8
	c-1.7,2-4,3.5-6.4,4.5c-6,2.4-9.9,6.4-9.9,11s3.9,8.6,9.9,11c2.5,1,4.7,2.5,6.4,4.5c2.6,3,6.1,4.8,9.8,4.8c5.3,0,9.9-3.6,12.6-9.1
	c0.8-1.7,2-3.3,3.3-4.6C46.4,29.7,47.5,27.4,47.5,25L47.5,25z"/>
<path class="st1" d="M34.1,6C34.1,6,34.1,6,34.1,6L34,6H15.9c-1,0-1.8,0.8-1.8,1.8v15.4v12.5v6.6c0,1,0.8,1.8,1.8,1.8h18.2
	c1,0,1.8-0.8,1.8-1.8v-6.6V23.2v-0.1V7.8C35.9,6.7,35.2,6,34.1,6z"/>
<g>
	<g>
		<g>
			<g>
				<path class="st2" d="M16.5,19.9h5.6c0.2,0,0.4,0.2,0.4,0.4s-0.2,0.4-0.4,0.4h-5.6c-0.2,0-0.4-0.2-0.4-0.4S16.2,19.9,16.5,19.9z"
					/>
			</g>
			<g>
				<path class="st2" d="M16.5,21.6h3.8c0.2,0,0.4,0.2,0.4,0.4c0,0.2-0.2,0.4-0.4,0.4h-3.8c-0.2,0-0.4-0.2-0.4-0.4
					C16.1,21.7,16.2,21.6,16.5,21.6z"/>
			</g>
		</g>
		
			<linearGradient id="SVGID_2_" gradientUnits="userSpaceOnUse" x1="15.9748" y1="34.8" x2="24.6141" y2="34.8" gradientTransform="matrix(1 0 0 -1 0 50)">
			<stop  offset="0" style="stop-color:#592C80"/>
			<stop  offset="1" style="stop-color:#DE277F"/>
		</linearGradient>
		<path class="st3" d="M24.2,18.9h-7.8c-0.2,0-0.4-0.2-0.4-0.4v-6.6c0-0.2,0.2-0.4,0.4-0.4h7.8c0.2,0,0.4,0.2,0.4,0.4v6.6
			C24.6,18.7,24.4,18.9,24.2,18.9L24.2,18.9z"/>
	</g>
	<g>
		<g>
			<g>
				<path class="st2" d="M25.9,19.9h5.6c0.2,0,0.4,0.2,0.4,0.4s-0.2,0.4-0.4,0.4h-5.6c-0.2,0-0.4-0.2-0.4-0.4S25.7,19.9,25.9,19.9z"
					/>
			</g>
			<g>
				<path class="st2" d="M25.9,21.6h3.8c0.2,0,0.4,0.2,0.4,0.4c0,0.2-0.2,0.4-0.4,0.4h-3.8c-0.2,0-0.4-0.2-0.4-0.4
					C25.5,21.7,25.7,21.6,25.9,21.6z"/>
			</g>
		</g>
		
			<linearGradient id="SVGID_3_" gradientUnits="userSpaceOnUse" x1="25.3859" y1="34.8" x2="34.0252" y2="34.8" gradientTransform="matrix(1 0 0 -1 0 50)">
			<stop  offset="0" style="stop-color:#592C80"/>
			<stop  offset="1" style="stop-color:#DE277F"/>
		</linearGradient>
		<path class="st4" d="M33.6,18.9h-7.8c-0.2,0-0.4-0.2-0.4-0.4v-6.6c0-0.2,0.2-0.4,0.4-0.4h7.8c0.2,0,0.4,0.2,0.4,0.4v6.6
			C34,18.7,33.8,18.9,33.6,18.9z"/>
	</g>
</g>
<g>
	<g>
		<g>
			<g>
				<path class="st2" d="M16.5,32.5h5.6c0.2,0,0.4,0.2,0.4,0.4s-0.2,0.4-0.4,0.4h-5.6c-0.2,0-0.4-0.2-0.4-0.4S16.2,32.5,16.5,32.5z"
					/>
			</g>
			<g>
				<path class="st2" d="M16.5,34.1h3.8c0.2,0,0.4,0.2,0.4,0.4s-0.2,0.4-0.4,0.4h-3.8c-0.2,0-0.4-0.2-0.4-0.4S16.2,34.1,16.5,34.1z"
					/>
			</g>
		</g>
		
			<linearGradient id="SVGID_4_" gradientUnits="userSpaceOnUse" x1="15.9748" y1="22.2" x2="24.6141" y2="22.2" gradientTransform="matrix(1 0 0 -1 0 50)">
			<stop  offset="0" style="stop-color:#592C80"/>
			<stop  offset="1" style="stop-color:#DE277F"/>
		</linearGradient>
		<path class="st5" d="M24.2,31.5h-7.8c-0.2,0-0.4-0.2-0.4-0.4v-6.6c0-0.2,0.2-0.4,0.4-0.4h7.8c0.2,0,0.4,0.2,0.4,0.4v6.6
			C24.6,31.3,24.4,31.5,24.2,31.5L24.2,31.5z"/>
	</g>
	<g>
		<g>
			<g>
				<path class="st2" d="M25.9,32.5h5.6c0.2,0,0.4,0.2,0.4,0.4s-0.2,0.4-0.4,0.4h-5.6c-0.2,0-0.4-0.2-0.4-0.4S25.7,32.5,25.9,32.5z"
					/>
			</g>
			<g>
				<path class="st2" d="M25.9,34.1h3.8c0.2,0,0.4,0.2,0.4,0.4s-0.2,0.4-0.4,0.4h-3.8c-0.2,0-0.4-0.2-0.4-0.4S25.7,34.1,25.9,34.1z"
					/>
			</g>
		</g>
		
			<linearGradient id="SVGID_5_" gradientUnits="userSpaceOnUse" x1="25.3859" y1="22.2" x2="34.0252" y2="22.2" gradientTransform="matrix(1 0 0 -1 0 50)">
			<stop  offset="0" style="stop-color:#592C80"/>
			<stop  offset="1" style="stop-color:#DE277F"/>
		</linearGradient>
		<path class="st6" d="M33.6,31.5h-7.8c-0.2,0-0.4-0.2-0.4-0.4v-6.6c0-0.2,0.2-0.4,0.4-0.4h7.8c0.2,0,0.4,0.2,0.4,0.4v6.6
			C34,31.3,33.8,31.5,33.6,31.5z"/>
	</g>
</g>
<g>
	<g>
		
			<linearGradient id="SVGID_6_" gradientUnits="userSpaceOnUse" x1="15.9748" y1="9.8479" x2="24.6141" y2="9.8479" gradientTransform="matrix(1 0 0 -1 0 50)">
			<stop  offset="0" style="stop-color:#592C80"/>
			<stop  offset="1" style="stop-color:#DE277F"/>
		</linearGradient>
		<path class="st7" d="M24.6,43.6H16v-6.5c0-0.2,0.2-0.4,0.4-0.4h7.8c0.2,0,0.4,0.2,0.4,0.4V43.6z"/>
	</g>
	<g>
		
			<linearGradient id="SVGID_7_" gradientUnits="userSpaceOnUse" x1="25.3859" y1="9.8479" x2="34.0252" y2="9.8479" gradientTransform="matrix(1 0 0 -1 0 50)">
			<stop  offset="0" style="stop-color:#592C80"/>
			<stop  offset="1" style="stop-color:#DE277F"/>
		</linearGradient>
		<path class="st8" d="M34,43.6h-8.6v-6.5c0-0.2,0.2-0.4,0.4-0.4h7.8c0.2,0,0.4,0.2,0.4,0.4V43.6z"/>
	</g>
</g>
<g>
	<path class="st2" d="M20.7,7.5c0-0.2,0.2-0.4,0.4-0.4c0.2,0,0.4,0.2,0.4,0.4c0,0.2-0.2,0.4-0.4,0.4C20.9,7.9,20.7,7.7,20.7,7.5z"/>
</g>
<g>
	<path class="st2" d="M22.1,7.5c0-0.2,0.2-0.4,0.4-0.4C22.8,7,23,7.2,23,7.5c0,0.2-0.2,0.4-0.4,0.4C22.3,7.9,22.1,7.7,22.1,7.5z"/>
</g>
<g>
	<path class="st2" d="M28.6,7.9h-3.3c-0.2,0-0.4-0.2-0.4-0.4c0-0.2,0.2-0.4,0.4-0.4h3.3c0.2,0,0.4,0.2,0.4,0.4
		C29,7.7,28.8,7.9,28.6,7.9z"/>
</g>
<g>
	<path class="st9" d="M10.4,12.5c-0.6,0-1.1-0.5-1.1-1.1s0.5-1.1,1.1-1.1s1.1,0.5,1.1,1.1S11,12.5,10.4,12.5z M10.4,11.1
		c-0.1,0-0.3,0.1-0.3,0.3s0.1,0.3,0.3,0.3c0.1,0,0.3-0.1,0.3-0.3C10.6,11.3,10.5,11.1,10.4,11.1z"/>
</g>
<g>
	<path class="st9" d="M11.1,39.2c-0.6,0-1.1-0.5-1.1-1.1s0.5-1.1,1.1-1.1s1.1,0.5,1.1,1.1S11.7,39.2,11.1,39.2z M11.1,37.8
		c-0.1,0-0.3,0.1-0.3,0.3s0.1,0.3,0.3,0.3c0.1,0,0.3-0.1,0.3-0.3C11.3,37.9,11.2,37.8,11.1,37.8z"/>
</g>
<g>
	<path class="st9" d="M39.2,19.7c-0.6,0-1.1-0.5-1.1-1.1s0.5-1.1,1.1-1.1s1.1,0.5,1.1,1.1C40.3,19.1,39.8,19.7,39.2,19.7z
		 M39.2,18.2c-0.1,0-0.3,0.1-0.3,0.3c0,0.1,0.1,0.3,0.3,0.3s0.3-0.1,0.3-0.3C39.4,18.4,39.3,18.2,39.2,18.2z"/>
</g>
</svg>
