<?xml version="1.0" encoding="utf-8"?>
<!-- Generator: Adobe Illustrator 21.0.0, SVG Export Plug-In . SVG Version: 6.00 Build 0)  -->
<svg version="1.1" id="Layer_1" xmlns="http://www.w3.org/2000/svg" xmlns:xlink="http://www.w3.org/1999/xlink" x="0px" y="0px"
	 viewBox="0 0 80 80" style="enable-background:new 0 0 80 80;" xml:space="preserve">
<style type="text/css">
	.st0{fill:#BF9B30;}
	.st1{fill:#FFFFFF;}
</style>
<g>
	<path class="st0" d="M60.2,57.5c0,0,0.6-3.6,1.4-8.2c0.7-4.6,0.1-4.8-0.3-5.6s-0.3-1.7,0-2.7s-0.7-2.3-0.7-2.3s-2.3-4.2-3-5.3
		c-0.7-1.1-4.1-8-4.8-9.8C52,21.8,51,18.7,51,18.7c-10.7-9.3-22.7,0-22.7,0c-12.1,9.1-10.2,20.6-10.2,20.6s19.6,17,20.8,21
		c0,0,0.9,1.5,0.3,5.1C39.3,65.4,50.9,66.5,60.2,57.5z"/>
	<path class="st1" d="M60,40.9c0,0,0-2-2.2-2.1c0,0-0.9-0.1-0.9,0.8c0,0.3,0.1,0.9,0.8,0.9C58.2,40.6,59.4,39.9,60,40.9z"/>
	<g>
		<path class="st1" d="M61.2,43.6L61.2,43.6c-0.3-0.3-0.4-0.6-0.6-0.8s-0.4-0.2-0.6-0.1c-0.4,0.3-1.4,0.3-2,0.2
			c-0.7-0.1-2.6-3.2-2.8-3.7c-0.1-0.3-0.1-0.7-0.1-1s0.3-0.7,0.5-0.9c0.3-0.2,0.9-0.4,1.8-0.4c1.6,0.1,2.6,0.7,2.6,0.7L57,32
			c-3.4-2.7-5.7-2.4-5.7-2.4l-6-14.5l-2-0.5l5.8,14.9c-9.1,0.6-11.9,6.1-11.9,6.1c0.6,2.7,5,4.6,5,4.6s1.6-3.4,6-3.8
			c2.6-0.3,3.3,2.9,3.3,2.9c-1.2-2.4-4-2-4-2C44,37.7,43,40.9,43,40.9s2.7-2.7,5-2.6c2.3,0.2,2.9,1.4,3.1,1.6c0.2,0.3,0.7,1,0.7,1
			c-3.3,0.9-7.1,0.1-7.1,0.1c-3.4-0.1-2.3,3.5-2.3,3.5s1.2,3.6,2.6,7c1.2,3.1,4.7,4.8,7.8,3.6C52.9,55,53,55,53,55
			c3-1.5,5.5-0.7,5.5-0.7c1.9,0.8,1.7,2.8,1.7,3.1c0.1-0.5,0.7-4.1,1.4-8.2C62.4,44.7,61.7,44.5,61.2,43.6z M57.1,43.5
			c1.4,0,1.4,0.9,1.4,0.9s0.1,0.6,0.3,1c0.3,0.4-0.2,1.1-0.3,1.2c-0.2,0.1-0.6,0.3-1.1,0c0,0-0.2,0.5-0.9,0.3c0,0,0.2-0.7-0.2-0.8
			c-0.3-0.1-2.3,0.5-3.1-0.6C53.2,45.6,55.8,43.5,57.1,43.5z M59.6,51.4c-0.9-1.9-2-2.1-3.1-2.2c-1-0.2-2.6,0.3-3,0.5
			c-0.5,0.2-1.9,0.5-1.8,0.5c0,0,0.9-0.9,1.2-1.1c0.9-0.7,2.8-1.7,2.8-1.7s0.3,0.5,1,0.5c0.6,0,0.9-0.3,0.9-0.3
			C59.8,48.9,59.6,51.4,59.6,51.4z"/>
		<path class="st1" d="M60.2,57.4C60.2,57.4,60.2,57.5,60.2,57.4C60.2,57.5,60.2,57.4,60.2,57.4z"/>
	</g>
	<path class="st1" d="M29.2,49.4c0,0-3.7-14.3,10.3-23.6c0,0-0.9-2.4,1.1-4.7c0,0-15.3,0.7-17.4,21c0,0,1.1,0.9,1.5,1.4
		c0,0,2.7-16.3,12.4-18.2c0,0-10.9,7.1-10.5,21.7L29.2,49.4z"/>
</g>
</svg>
