<?xml version="1.0" encoding="utf-8"?>
<!-- Generator: Adobe Illustrator 21.0.0, SVG Export Plug-In . SVG Version: 6.00 Build 0)  -->
<svg version="1.1" id="layer" xmlns="http://www.w3.org/2000/svg" xmlns:xlink="http://www.w3.org/1999/xlink" x="0px" y="0px"
	 viewBox="0 0 260 70" style="enable-background:new 0 0 260 70;" xml:space="preserve">
<style type="text/css">
	.st0{opacity:0.25;}
	.st1{fill:#FFFFFF;}
</style>
<path class="st0" d="M76,49.9c0,0,0.5-3.1,1.2-7c0.6-3.9,0.1-4-0.3-4.8c-0.4-0.7-0.2-1.4,0-2.3s-0.6-1.9-0.6-1.9s-1.9-3.5-2.5-4.5
	c-0.6-1-3.4-6.8-4.1-8.3c-0.7-1.5-1.5-4.2-1.5-4.2c-9.1-7.9-19.3,0-19.3,0c-10.3,7.7-8.7,17.5-8.7,17.5s16.6,14.5,17.8,17.9
	c0,0,0.7,1.3,0.3,4.3C58.2,56.6,68.1,57.6,76,49.9z"/>
<path class="st1" d="M75.9,35.7c0,0,0-1.7-1.9-1.8c0,0-0.7-0.1-0.8,0.7c0,0.3,0.1,0.8,0.7,0.8C74.2,35.4,75.3,34.9,75.9,35.7z"/>
<g>
	<path class="st1" d="M76.8,38L76.8,38c-0.2-0.3-0.4-0.5-0.5-0.7c-0.1-0.1-0.4-0.1-0.5-0.1c-0.4,0.2-1.1,0.2-1.6,0.1
		c-0.6-0.1-2.2-2.8-2.4-3.1c-0.1-0.2-0.1-0.6-0.1-0.9s0.2-0.6,0.4-0.7c0.3-0.1,0.8-0.4,1.5-0.4c1.3,0.1,2.2,0.6,2.2,0.6l-2.6-4.7
		c-2.9-2.3-4.9-2-4.9-2l-5.1-12.3l-1.6-0.4L66.5,26c-7.8,0.5-10.1,5.2-10.1,5.2c0.5,2.3,4.3,3.9,4.3,3.9s1.3-2.9,5.1-3.3
		c2.2-0.2,2.8,2.5,2.8,2.5c-1-2-3.4-1.7-3.4-1.7c-3,0.4-3.7,3.1-3.7,3.1s2.3-2.3,4.3-2.2s2.5,1.1,2.6,1.3c0.1,0.2,0.6,0.9,0.6,0.9
		c-2.8,0.8-6.1,0.1-6.1,0.1c-2.9-0.1-1.9,3-1.9,3s1,3.1,2.2,5.9c1,2.7,4,4,6.7,3.1c0.1-0.1,0.2-0.1,0.2-0.1c2.5-1.3,4.7-0.6,4.7-0.6
		c1.6,0.7,1.3,2.3,1.3,2.6c0.1-0.4,0.6-3.4,1.2-6.9C77.8,39,77.3,38.8,76.8,38z M73.3,38c1.2,0,1.1,0.7,1.1,0.7s0.1,0.5,0.3,0.9
		s-0.1,1-0.3,1s-0.5,0.2-1,0c0,0-0.1,0.4-0.8,0.3c0,0,0.1-0.6-0.1-0.7c-0.2-0.1-1.9,0.4-2.6-0.5C70,39.8,72.2,38,73.3,38z
		 M75.5,44.6c-0.7-1.6-1.7-1.8-2.6-1.9c-0.9-0.1-2.2,0.3-2.5,0.4c-0.4,0.1-1.6,0.4-1.5,0.4c0,0,0.7-0.7,1-1c0.8-0.6,2.4-1.4,2.4-1.4
		s0.3,0.4,0.9,0.4c0.5,0,0.8-0.3,0.8-0.3C75.6,42.5,75.5,44.6,75.5,44.6z"/>
	<path class="st1" d="M76,49.8C76,49.8,76,49.9,76,49.8C76,49.9,76,49.8,76,49.8z"/>
</g>
<path class="st1" d="M49.6,43c0,0-3.2-12.2,8.8-20.1c0,0-0.7-2,1-4c0,0-13,0.6-14.8,17.9c0,0,1,0.8,1.3,1.1c0,0,2.3-13.9,10.6-15.5
	c0,0-9.3,6-8.9,18.5L49.6,43z"/>
<g>
	<path class="st1" d="M110.1,15.5v0.2c-0.9,0-1.7,0.3-2.3,1c-0.6,0.6-1,1.4-1,2.3v19.1c0,0.2,0.1,0.4,0.2,0.6
		c0.1,0.1,0.4,0.2,0.6,0.2v0.2h-6.1L92.9,17v18.7c0,0.4,0.1,0.9,0.2,1.3c0.1,0.4,0.4,0.7,0.7,1c0.3,0.3,0.6,0.5,1,0.7
		c0.4,0.1,0.8,0.2,1.3,0.2v0.1h-6.7v-0.1c0.4,0,0.9-0.1,1.3-0.2c0.4-0.1,0.7-0.4,1-0.7s0.5-0.7,0.7-1c0.1-0.4,0.2-0.8,0.2-1.3V16.6
		c0-0.2-0.1-0.4-0.2-0.6c-0.1-0.1-0.4-0.2-0.6-0.2v-0.2H98l8.7,22.2V19c0-0.4-0.1-0.9-0.2-1.3c-0.1-0.4-0.4-0.7-0.7-1
		s-0.7-0.5-1-0.7s-0.8-0.2-1.3-0.2v-0.2C103.5,15.5,110.1,15.5,110.1,15.5z"/>
	<path class="st1" d="M121.8,31.9c0.7,0,1.3,0.3,1.9,0.8c0.5,0.5,0.8,1.1,0.8,1.9c0,0.7-0.1,1.3-0.5,1.8c-0.4,0.5-0.8,1-1.4,1.5
		c-0.6,0.4-1.3,0.7-2,1s-1.6,0.4-2.5,0.4c-1.2,0-2.2-0.2-3.2-0.7s-1.8-1-2.4-1.8c-0.7-0.7-1.2-1.6-1.5-2.6c-0.4-1-0.5-2.1-0.5-3.2
		c0-1.1,0.1-2.2,0.5-3.2c0.4-1,0.8-1.9,1.5-2.6s1.5-1.3,2.4-1.8c1-0.4,2-0.7,3.2-0.7c1,0,2.1,0.2,3,0.6c0.9,0.4,1.6,0.9,2.3,1.5
		c0.7,0.6,1.1,1.3,1.5,2.1c0.4,0.7,0.5,1.6,0.5,2.3h-9.7v1.7V33c0,1.1,0.1,2.1,0.1,2.8c0.1,0.7,0.3,1.3,0.5,1.8
		c0.2,0.4,0.5,0.7,0.9,1s0.8,0.3,1.3,0.3c0.4,0,0.7-0.1,1.2-0.2s0.7-0.4,0.8-0.9c0.1-0.3,0-0.6-0.1-0.8c-0.2-0.2-0.4-0.4-0.5-0.6
		c-0.5-0.5-0.8-1.2-0.8-1.9c0-0.7,0.3-1.3,0.8-1.9C120.5,32.1,121.1,31.9,121.8,31.9z M117.3,23c-0.6,0.3-1,0.9-1.3,1.8
		c-0.3,0.9-0.4,2.2-0.4,4V29h4.8c0-0.6,0-1.2,0-1.8s-0.1-1.2-0.2-1.7c-0.1-0.5-0.3-1-0.5-1.4c-0.2-0.4-0.5-0.7-1-1
		c-0.1,0-0.1-0.1-0.2-0.1c-0.1-0.1-0.2-0.1-0.4-0.1c-0.1,0-0.3,0-0.4,0.1C117.4,22.9,117.3,22.9,117.3,23z"/>
	<path class="st1" d="M134.7,15.5c0.8,0,1.6,0.1,2.3,0.4c0.7,0.2,1.3,0.6,1.9,1c0.5,0.4,0.9,0.9,1.2,1.5c0.3,0.5,0.4,1.1,0.4,1.8
		c0,0.7-0.3,1.3-0.8,1.9c-0.5,0.5-1.1,0.8-1.9,0.8s-1.3-0.3-1.9-0.8c-0.5-0.5-0.8-1.1-0.8-1.9s0.3-1.3,0.8-1.9
		c0.1-0.1,0.4-0.4,0.5-0.6c0.2-0.2,0.2-0.4,0.1-0.8c-0.1-0.4-0.3-0.7-0.6-0.8c-0.3-0.1-0.6-0.2-0.9-0.2c-0.8,0-1.3,0.4-1.6,1.2
		c-0.2,0.8-0.4,2.1-0.4,3.9V26v1.2h0.9c0.7,0,1.3-0.2,1.9-0.7c0.5-0.5,0.7-1.1,0.7-1.9h0.2v5.5h-0.1c0-0.7-0.2-1.3-0.7-1.9
		c-0.5-0.5-1.1-0.7-1.9-0.7h-0.9v10.6c0,0.2,0.1,0.4,0.2,0.6s0.4,0.2,0.6,0.2v0.2h-6.5H127v-0.2c0.2,0,0.4-0.1,0.6-0.2
		c0.1-0.1,0.2-0.4,0.2-0.6v-1V22.9c0-2.3,0.6-4.1,1.8-5.4C130.8,16.2,132.6,15.5,134.7,15.5z"/>
	<path class="st1" d="M150.7,31.9c0.7,0,1.3,0.3,1.9,0.8c0.5,0.5,0.8,1.1,0.8,1.9c0,0.7-0.1,1.3-0.5,1.8s-0.8,1-1.4,1.5
		c-0.6,0.4-1.3,0.7-2,1s-1.6,0.4-2.5,0.4c-1.2,0-2.2-0.2-3.2-0.7c-1-0.4-1.8-1-2.4-1.8c-0.7-0.7-1.2-1.6-1.5-2.6
		c-0.4-1-0.5-2.1-0.5-3.2c0-1.1,0.1-2.2,0.5-3.2c0.4-1,0.8-1.9,1.5-2.6s1.5-1.3,2.4-1.8c1-0.4,2-0.7,3.2-0.7c1,0,2.1,0.2,3,0.6
		c0.9,0.4,1.6,0.9,2.3,1.5c0.7,0.6,1.1,1.3,1.5,2.1c0.4,0.7,0.5,1.6,0.5,2.3h-9.7v1.7V33c0,1.1,0.1,2.1,0.1,2.8
		c0.1,0.7,0.3,1.3,0.5,1.8c0.2,0.4,0.5,0.7,0.9,1s0.8,0.3,1.3,0.3c0.4,0,0.7-0.1,1.2-0.2s0.7-0.4,0.8-0.9c0.1-0.3,0-0.6-0.1-0.8
		c-0.2-0.2-0.4-0.4-0.5-0.6c-0.5-0.5-0.8-1.2-0.8-1.9c0-0.7,0.3-1.3,0.8-1.9C149.4,32.1,150,31.9,150.7,31.9z M146.2,23
		c-0.6,0.3-1,0.9-1.3,1.8c-0.3,0.9-0.4,2.2-0.4,4V29h4.8c0-0.6,0-1.2,0-1.8s-0.1-1.2-0.2-1.7s-0.3-1-0.5-1.4c-0.2-0.4-0.5-0.7-1-1
		c-0.1,0-0.1-0.1-0.2-0.1c-0.1-0.1-0.2-0.1-0.4-0.1c-0.1,0-0.3,0-0.4,0.1C146.3,22.9,146.2,22.9,146.2,23z"/>
	<path class="st1" d="M168,22.9c0.6,0.4,1,0.9,1.2,1.6c0.2,0.7,0.1,1.3-0.3,2s-0.9,1-1.6,1.3c-0.7,0.2-1.3,0.1-2-0.3
		c-0.7-0.4-1-0.9-1.3-1.6c-0.1-0.3-0.1-0.6-0.1-0.8c0-0.2,0.1-0.4,0.1-0.7c0.1-0.2,0.1-0.4,0.1-0.5s-0.1-0.3-0.1-0.4
		c-0.1-0.1-0.2-0.1-0.4-0.1c-0.1,0-0.4,0.1-0.5,0.1c-0.1,0.1-0.4,0.1-0.5,0.3c-0.2,0.1-0.4,0.2-0.5,0.4c0.1,0.3,0.1,0.7,0.1,1.3V33
		v1v4c0,0.2,0.1,0.4,0.2,0.6s0.4,0.2,0.6,0.2v0.2h-0.4h-2.8h-3.7v-0.2c0.2,0,0.4-0.1,0.6-0.2s0.2-0.4,0.2-0.6v-4V23.6
		c0-0.2-0.1-0.4-0.2-0.6c-0.1-0.1-0.4-0.2-0.6-0.2v-0.2h3.7c1.3,0,2,0.5,2.2,1.5c0.3-0.2,0.6-0.4,1.1-0.7c0.4-0.2,1-0.4,1.5-0.7
		c0.5-0.1,1.1-0.2,1.7-0.2C166.9,22.4,167.4,22.6,168,22.9z"/>
	<path class="st1" d="M180,37.7c-0.5,0.4-1.1,0.7-1.8,1s-1.4,0.4-2.2,0.4c-0.6,0-1.1-0.1-1.6-0.2s-1-0.4-1.3-0.7s-0.7-0.8-0.9-1.3
		s-0.3-1.2-0.3-2v-9.3v-1.9c0-0.2-0.1-0.4-0.2-0.6s-0.4-0.2-0.6-0.2v-0.2c0.7,0,1.3-0.1,2-0.3c0.7-0.2,1.3-0.4,1.9-0.8
		c0.5-0.3,1-0.7,1.4-1.2c0.4-0.4,0.6-0.9,0.7-1.4h0.2v3.7h2.2v0.2h-2.2v0.8V26v9.6c0,0.7,0.1,1.3,0.3,1.7c0.1,0.4,0.4,0.6,0.7,0.7
		c0.3,0.1,0.6,0.1,1-0.1c0.4-0.1,0.7-0.3,1-0.5L180,37.7z"/>
	<path class="st1" d="M195.4,38.1c0,0.2,0.1,0.4,0.2,0.6s0.4,0.2,0.6,0.2v0.2h-3.7c-0.7,0-1.3-0.1-1.6-0.4c-0.4-0.3-0.6-0.7-0.7-1.3
		c-0.4,0.5-1,0.9-1.6,1.2c-0.7,0.3-1.3,0.5-2.1,0.5c-0.7,0.1-1.4,0-2-0.1s-1.2-0.4-1.6-0.8c-0.4-0.4-0.8-0.9-1-1.5
		c-0.2-0.6-0.3-1.3-0.2-2c0.1-0.7,0.2-1.3,0.6-1.7c0.3-0.4,0.7-0.9,1.1-1.2c0.4-0.4,1-0.7,1.5-0.9c0.5-0.2,1.1-0.4,1.7-0.6
		c1.2-0.4,2-0.7,2.5-1c0.5-0.4,0.9-0.7,1-1v-1.6c0-1.3-0.1-2.2-0.4-2.8c-0.3-0.6-0.8-0.9-1.6-0.7c-1,0.1-1.6,0.4-1.7,1
		c-0.1,0.3,0,0.6,0.2,0.8s0.4,0.4,0.6,0.6c0.2,0.2,0.4,0.5,0.6,0.8c0.1,0.3,0.2,0.7,0.2,1c0,0.7-0.2,1.3-0.7,1.9
		c-0.5,0.5-1.1,0.7-1.9,0.7s-1.3-0.2-1.9-0.7c-0.5-0.5-0.7-1.1-0.7-1.9c0-0.6,0.1-1.2,0.5-1.8c0.3-0.5,0.8-1,1.4-1.5
		c0.6-0.4,1.3-0.7,2.1-1c0.7-0.2,1.6-0.4,2.5-0.4s1.7,0.1,2.5,0.4c0.7,0.2,1.5,0.5,2,1c0.6,0.4,1,0.9,1.4,1.5
		c0.4,0.5,0.5,1.1,0.5,1.8v9.5v0.2V38v0.1H195.4z M189.7,37.6c0.1-0.1,0.1-0.1,0.2-0.1c0.1-0.1,0.1-0.1,0.2-0.1
		c0-0.1-0.1-0.3-0.1-0.5c0-0.1,0-0.4,0-0.5V35v-6.4c-0.3,0.4-0.7,0.7-1,1c-0.4,0.3-0.7,0.6-1.1,1c-0.4,0.4-0.7,0.9-0.9,1.6
		s-0.4,1.5-0.4,2.6c0,0.8,0.1,1.5,0.3,2c0.2,0.4,0.4,0.8,0.8,1c0.3,0.2,0.7,0.3,1,0.2C189.1,37.9,189.4,37.7,189.7,37.6z"/>
	<path class="st1" d="M210,22.9c0.6,0.4,1,0.9,1.2,1.6c0.2,0.7,0.1,1.3-0.3,2s-0.9,1-1.6,1.3c-0.7,0.2-1.3,0.1-2-0.3
		c-0.7-0.4-1-0.9-1.3-1.6c-0.1-0.3-0.1-0.6-0.1-0.8c0-0.2,0.1-0.4,0.1-0.7c0.1-0.2,0.1-0.4,0.1-0.5s-0.1-0.3-0.1-0.4
		c-0.1-0.1-0.2-0.1-0.4-0.1c-0.1,0-0.4,0.1-0.5,0.1c-0.1,0.1-0.4,0.1-0.5,0.3c-0.2,0.1-0.4,0.2-0.5,0.4c0.1,0.3,0.1,0.7,0.1,1.3V33
		v1v4c0,0.2,0.1,0.4,0.2,0.6s0.4,0.2,0.6,0.2v0.2h-0.4h-2.8h-3.7v-0.2c0.2,0,0.4-0.1,0.6-0.2s0.2-0.4,0.2-0.6v-4V23.6
		c0-0.2-0.1-0.4-0.2-0.6c-0.1-0.1-0.4-0.2-0.6-0.2v-0.2h3.7c1.3,0,2,0.5,2.2,1.5c0.3-0.2,0.6-0.4,1.1-0.7c0.4-0.2,1-0.4,1.5-0.7
		c0.5-0.1,1.1-0.2,1.7-0.2C208.9,22.4,209.4,22.6,210,22.9z"/>
	<path class="st1" d="M213.8,27.6v-4c0-0.2-0.1-0.4-0.2-0.6c-0.1-0.1-0.4-0.2-0.6-0.2v-0.2h3.7h2.8h0.4v0.2c-0.2,0-0.4,0.1-0.6,0.2
		c-0.1,0.1-0.2,0.4-0.2,0.6v4v6.4v4c0,0.2,0.1,0.4,0.2,0.6s0.4,0.2,0.6,0.2v0.2h-0.4h-2.8H213v-0.2c0.2,0,0.4-0.1,0.6-0.2
		s0.2-0.4,0.2-0.6v-4V27.6z M219.2,18.2c0,0.7-0.3,1.3-0.8,1.9c-0.5,0.5-1.1,0.7-1.9,0.7c-0.7,0-1.3-0.2-1.9-0.7s-0.8-1.1-0.8-1.9
		s0.3-1.3,0.8-1.9c0.5-0.5,1.1-0.8,1.9-0.8c0.7,0,1.3,0.3,1.9,0.8C218.9,16.9,219.2,17.5,219.2,18.2z"/>
</g>
<g>
	<path class="st1" d="M179.5,50.8c-0.8,0-1.4-0.1-1.9-0.4c-0.5-0.3-0.9-0.7-1.2-1.2c-0.3-0.5-0.4-1.1-0.4-1.9c0-0.8,0.1-1.5,0.4-2.2
		c0.3-0.7,0.6-1.3,1.1-1.8c0.5-0.5,1-0.9,1.6-1.2c0.6-0.3,1.3-0.4,2.1-0.4c1.1,0,1.9,0.3,2.5,0.8c0.6,0.5,0.9,1.3,0.9,2.2h-1.8
		c0-0.5-0.2-0.9-0.5-1.1c-0.3-0.3-0.8-0.4-1.3-0.4c-0.6,0-1.2,0.2-1.7,0.5s-0.9,0.8-1.2,1.4c-0.3,0.6-0.4,1.3-0.4,2
		c0,0.7,0.2,1.3,0.6,1.7c0.4,0.4,0.9,0.6,1.6,0.6c0.6,0,1.1-0.1,1.5-0.4c0.4-0.3,0.7-0.6,0.9-1.1h1.8c-0.3,0.9-0.9,1.6-1.7,2.1
		S180.6,50.8,179.5,50.8z"/>
	<path class="st1" d="M184.8,50.6l1.1-6.3h1.5l-0.1,1.1c0.3-0.4,0.7-0.7,1.1-0.9c0.4-0.2,0.9-0.4,1.4-0.4l-0.3,1.7h-0.4
		c-0.5,0-1,0.1-1.4,0.4c-0.4,0.2-0.6,0.7-0.8,1.4l-0.5,3H184.8z"/>
	<path class="st1" d="M192.8,50.8c-0.8,0-1.5-0.2-2-0.7c-0.5-0.5-0.7-1.1-0.7-1.9c0-0.5,0.1-1,0.3-1.5c0.2-0.5,0.5-0.9,0.8-1.2
		c0.3-0.4,0.8-0.6,1.2-0.8c0.5-0.2,1-0.3,1.6-0.3c0.6,0,1,0.1,1.4,0.3c0.4,0.2,0.7,0.5,0.9,0.9c0.2,0.4,0.3,0.8,0.3,1.3
		c0,0.2,0,0.4-0.1,0.6c0,0.2-0.1,0.4-0.1,0.6h-4.8c0,0.1,0,0.1,0,0.2c0,0.4,0.1,0.8,0.4,1c0.3,0.2,0.6,0.4,1,0.4
		c0.3,0,0.6-0.1,0.9-0.2c0.2-0.1,0.5-0.3,0.6-0.6h1.6c-0.2,0.4-0.5,0.8-0.8,1.1c-0.3,0.3-0.7,0.6-1.1,0.8
		C193.8,50.7,193.3,50.8,192.8,50.8z M193.7,45.5c-0.4,0-0.8,0.1-1.1,0.3c-0.3,0.2-0.6,0.6-0.8,1h3.1c0-0.1,0-0.1,0-0.1
		c0-0.4-0.1-0.7-0.3-0.9C194.4,45.6,194.1,45.5,193.7,45.5z"/>
	<path class="st1" d="M200.1,50.8c-0.5,0-1-0.1-1.3-0.4c-0.4-0.2-0.7-0.6-0.9-1c-0.2-0.4-0.3-0.9-0.3-1.4c0-0.7,0.2-1.4,0.5-1.9
		c0.3-0.6,0.7-1,1.3-1.4c0.5-0.3,1.1-0.5,1.8-0.5c0.5,0,0.9,0.1,1.3,0.3c0.3,0.2,0.6,0.4,0.7,0.7l0.6-3.7h1.6l-1.6,9.1h-1.4l0-0.9
		c-0.2,0.3-0.5,0.5-0.9,0.7C201.1,50.7,200.6,50.8,200.1,50.8z M200.7,49.4c0.4,0,0.7-0.1,1.1-0.3c0.3-0.2,0.6-0.5,0.7-0.8
		c0.2-0.3,0.3-0.7,0.3-1.1c0-0.4-0.1-0.8-0.4-1.1c-0.3-0.3-0.6-0.4-1.1-0.4c-0.4,0-0.7,0.1-1.1,0.3c-0.3,0.2-0.5,0.5-0.7,0.8
		c-0.2,0.3-0.3,0.7-0.3,1.1c0,0.4,0.1,0.8,0.4,1.1C199.9,49.2,200.3,49.4,200.7,49.4z"/>
	<path class="st1" d="M205.5,50.6l1.1-6.3h1.6l-1.1,6.3H205.5z M207.8,43.4c-0.3,0-0.5-0.1-0.7-0.3c-0.2-0.2-0.3-0.4-0.3-0.7
		c0-0.3,0.1-0.5,0.3-0.7c0.2-0.2,0.4-0.3,0.7-0.3s0.5,0.1,0.7,0.3c0.2,0.2,0.3,0.4,0.3,0.7c0,0.3-0.1,0.5-0.3,0.7
		C208.3,43.3,208.1,43.4,207.8,43.4z"/>
	<path class="st1" d="M211.5,50.6c-0.6,0-1-0.1-1.4-0.4c-0.3-0.2-0.5-0.6-0.5-1.2c0-0.2,0-0.4,0.1-0.6l0.5-2.7h-1l0.2-1.4h1l0.5-1.7
		h1.4l-0.3,1.7h1.7l-0.3,1.4h-1.7l-0.5,2.7c0,0.1,0,0.2,0,0.3c0,0.2,0.1,0.3,0.2,0.4c0.1,0.1,0.3,0.1,0.6,0.1h0.9l-0.3,1.4H211.5z"
		/>
	<path class="st1" d="M216.7,50.8c-0.6,0-1.1-0.1-1.5-0.3c-0.4-0.2-0.7-0.5-0.9-0.8c-0.2-0.3-0.3-0.7-0.3-1.1h1.6
		c0,0.3,0.1,0.5,0.3,0.7c0.2,0.2,0.5,0.3,0.9,0.3c0.4,0,0.6-0.1,0.8-0.2c0.2-0.2,0.3-0.3,0.3-0.6c0-0.2-0.1-0.4-0.3-0.5
		c-0.2-0.1-0.5-0.2-0.8-0.3c-0.3-0.1-0.7-0.2-1-0.3c-0.3-0.1-0.6-0.3-0.8-0.5c-0.2-0.2-0.3-0.5-0.3-0.8c0-0.4,0.1-0.8,0.4-1.1
		c0.2-0.3,0.6-0.6,1-0.7c0.4-0.2,0.9-0.3,1.5-0.3c0.7,0,1.3,0.2,1.8,0.5s0.6,0.8,0.6,1.4h-1.6c0-0.2-0.1-0.4-0.3-0.5
		c-0.2-0.1-0.4-0.2-0.7-0.2c-0.3,0-0.5,0.1-0.7,0.2c-0.2,0.1-0.3,0.3-0.3,0.5c0,0.2,0.1,0.3,0.3,0.4c0.2,0.1,0.5,0.2,0.9,0.3
		c0.4,0.1,0.8,0.2,1.1,0.3c0.3,0.1,0.6,0.3,0.8,0.5c0.2,0.2,0.3,0.5,0.3,0.8c0,0.5-0.1,0.9-0.4,1.2c-0.3,0.3-0.6,0.6-1.1,0.8
		C217.8,50.7,217.3,50.8,216.7,50.8z"/>
</g>
</svg>
