<?xml version="1.0" encoding="utf-8"?>
<!-- Generator: Adobe Illustrator 21.0.0, SVG Export Plug-In . SVG Version: 6.00 Build 0)  -->
<svg version="1.1" id="layer" xmlns="http://www.w3.org/2000/svg" xmlns:xlink="http://www.w3.org/1999/xlink" x="0px" y="0px"
	 viewBox="0 0 260 70" style="enable-background:new 0 0 260 70;" xml:space="preserve">
<style type="text/css">
	.st0{fill:#0D0F21;}
	.st1{fill:url(#SVGID_1_);}
	.st2{fill:#FFFFFF;}
</style>
<g>
	<g>
		<path class="st0" d="M110.2,15.6v0.2c-0.9,0-1.7,0.3-2.3,1c-0.6,0.6-1,1.4-1,2.3v19.1c0,0.2,0.1,0.4,0.2,0.6
			c0.1,0.1,0.4,0.2,0.6,0.2v0.2h-6.1L92.9,17v18.7c0,0.4,0.1,0.9,0.2,1.3c0.1,0.4,0.4,0.7,0.7,1c0.3,0.3,0.6,0.5,1,0.7
			c0.4,0.1,0.8,0.2,1.3,0.2v0.1h-6.7V39c0.4,0,0.9-0.1,1.3-0.2c0.4-0.1,0.7-0.4,1-0.7c0.3-0.3,0.5-0.7,0.7-1
			c0.1-0.4,0.2-0.8,0.2-1.3V16.6c0-0.2-0.1-0.4-0.2-0.6c-0.1-0.1-0.4-0.2-0.6-0.2v-0.2H98l8.7,22.2V19c0-0.4-0.1-0.9-0.2-1.3
			c-0.1-0.4-0.4-0.7-0.7-1s-0.7-0.5-1-0.7c-0.4-0.1-0.8-0.2-1.3-0.2v-0.2C103.5,15.6,110.2,15.6,110.2,15.6z"/>
		<path class="st0" d="M121.9,31.9c0.7,0,1.3,0.3,1.9,0.8s0.8,1.1,0.8,1.9c0,0.7-0.1,1.3-0.5,1.8c-0.4,0.5-0.8,1-1.4,1.5
			c-0.6,0.4-1.3,0.7-2,1c-0.7,0.2-1.6,0.4-2.5,0.4c-1.2,0-2.2-0.2-3.2-0.7c-1-0.4-1.8-1-2.4-1.8c-0.7-0.7-1.2-1.6-1.5-2.6
			c-0.4-1-0.5-2.1-0.5-3.2c0-1.1,0.1-2.2,0.5-3.2c0.4-1,0.8-1.9,1.5-2.6c0.7-0.7,1.5-1.3,2.4-1.8c1-0.4,2-0.7,3.2-0.7
			c1,0,2.1,0.2,3,0.6c0.9,0.4,1.6,0.9,2.3,1.5s1.1,1.3,1.5,2.1c0.4,0.7,0.5,1.6,0.5,2.3h-9.7v1.7v2.2c0,1.1,0.1,2.1,0.1,2.8
			c0.1,0.7,0.3,1.3,0.5,1.8c0.2,0.4,0.5,0.7,0.9,1c0.4,0.2,0.8,0.3,1.3,0.3c0.4,0,0.7-0.1,1.2-0.2c0.4-0.1,0.7-0.4,0.8-0.9
			c0.1-0.3,0-0.6-0.1-0.8c-0.2-0.2-0.4-0.4-0.5-0.6c-0.5-0.5-0.8-1.2-0.8-1.9c0-0.7,0.3-1.3,0.8-1.9
			C120.5,32.2,121.1,31.9,121.9,31.9z M117.3,23c-0.6,0.3-1,0.9-1.3,1.8s-0.4,2.2-0.4,4V29h4.8c0-0.6,0-1.2,0-1.8
			c0-0.6-0.1-1.2-0.2-1.7c-0.1-0.5-0.3-1-0.5-1.4c-0.2-0.4-0.5-0.7-1-1c-0.1,0-0.1-0.1-0.2-0.1c-0.1-0.1-0.2-0.1-0.4-0.1
			c-0.1,0-0.3,0-0.4,0.1C117.5,22.9,117.4,22.9,117.3,23z"/>
		<path class="st0" d="M134.8,15.6c0.8,0,1.6,0.1,2.3,0.4c0.7,0.2,1.3,0.6,1.9,1c0.5,0.4,0.9,0.9,1.2,1.5c0.3,0.5,0.4,1.1,0.4,1.8
			c0,0.7-0.3,1.3-0.8,1.9c-0.5,0.5-1.1,0.8-1.9,0.8c-0.7,0-1.3-0.3-1.9-0.8c-0.5-0.5-0.8-1.1-0.8-1.9c0-0.7,0.3-1.3,0.8-1.9
			c0.1-0.1,0.4-0.4,0.5-0.6c0.2-0.2,0.2-0.4,0.1-0.8c-0.1-0.4-0.3-0.7-0.6-0.8c-0.3-0.1-0.6-0.2-0.9-0.2c-0.8,0-1.3,0.4-1.6,1.2
			c-0.2,0.8-0.4,2.1-0.4,3.9V26v1.2h0.9c0.7,0,1.3-0.2,1.9-0.7c0.5-0.5,0.7-1.1,0.7-1.9h0.2v5.5h-0.1c0-0.7-0.2-1.3-0.7-1.9
			c-0.5-0.5-1.1-0.7-1.9-0.7h-0.9v10.6c0,0.2,0.1,0.4,0.2,0.6c0.1,0.1,0.4,0.2,0.6,0.2v0.2h-6.5H127V39c0.2,0,0.4-0.1,0.6-0.2
			c0.1-0.1,0.2-0.4,0.2-0.6v-1V22.9c0-2.3,0.6-4.1,1.8-5.4S132.6,15.6,134.8,15.6z"/>
		<path class="st0" d="M150.7,31.9c0.7,0,1.3,0.3,1.9,0.8c0.5,0.5,0.8,1.1,0.8,1.9c0,0.7-0.1,1.3-0.5,1.8s-0.8,1-1.4,1.5
			c-0.6,0.4-1.3,0.7-2,1c-0.7,0.2-1.6,0.4-2.5,0.4c-1.2,0-2.2-0.2-3.2-0.7c-1-0.4-1.8-1-2.4-1.8c-0.7-0.7-1.2-1.6-1.5-2.6
			c-0.4-1-0.5-2.1-0.5-3.2c0-1.1,0.1-2.2,0.5-3.2c0.4-1,0.8-1.9,1.5-2.6c0.7-0.7,1.5-1.3,2.4-1.8c1-0.4,2-0.7,3.2-0.7
			c1,0,2.1,0.2,3,0.6c0.9,0.4,1.6,0.9,2.3,1.5s1.1,1.3,1.5,2.1c0.4,0.7,0.5,1.6,0.5,2.3h-9.7v1.7v2.2c0,1.1,0.1,2.1,0.1,2.8
			c0.1,0.7,0.3,1.3,0.5,1.8c0.2,0.4,0.5,0.7,0.9,1c0.4,0.2,0.8,0.3,1.3,0.3c0.4,0,0.7-0.1,1.2-0.2c0.4-0.1,0.7-0.4,0.8-0.9
			c0.1-0.3,0-0.6-0.1-0.8c-0.2-0.2-0.4-0.4-0.5-0.6c-0.5-0.5-0.8-1.2-0.8-1.9c0-0.7,0.3-1.3,0.8-1.9C149.4,32.2,150,31.9,150.7,31.9
			z M146.2,23c-0.6,0.3-1,0.9-1.3,1.8c-0.3,0.9-0.4,2.2-0.4,4V29h4.8c0-0.6,0-1.2,0-1.8c0-0.6-0.1-1.2-0.2-1.7
			c-0.1-0.5-0.3-1-0.5-1.4c-0.2-0.4-0.5-0.7-1-1c-0.1,0-0.1-0.1-0.2-0.1c-0.1-0.1-0.2-0.1-0.4-0.1c-0.1,0-0.3,0-0.4,0.1
			C146.3,22.9,146.2,22.9,146.2,23z"/>
		<path class="st0" d="M168,22.9c0.6,0.4,1,0.9,1.2,1.6c0.2,0.7,0.1,1.3-0.3,2c-0.4,0.7-0.9,1-1.6,1.3c-0.7,0.2-1.3,0.1-2-0.3
			c-0.7-0.4-1-0.9-1.3-1.6c-0.1-0.3-0.1-0.6-0.1-0.8c0-0.2,0.1-0.4,0.1-0.7c0.1-0.2,0.1-0.4,0.1-0.5s-0.1-0.3-0.1-0.4
			c-0.1-0.1-0.2-0.1-0.4-0.1c-0.1,0-0.4,0.1-0.5,0.1c-0.1,0.1-0.4,0.1-0.5,0.3c-0.2,0.1-0.4,0.2-0.5,0.4c0.1,0.3,0.1,0.7,0.1,1.3
			v7.5v1v4c0,0.2,0.1,0.4,0.2,0.6c0.1,0.1,0.4,0.2,0.6,0.2v0.2h-0.4h-2.8h-3.7V39c0.2,0,0.4-0.1,0.6-0.2s0.2-0.4,0.2-0.6v-4V23.6
			c0-0.2-0.1-0.4-0.2-0.6c-0.1-0.1-0.4-0.2-0.6-0.2v-0.2h3.7c1.3,0,2,0.5,2.2,1.5c0.3-0.2,0.6-0.4,1.1-0.7c0.4-0.2,1-0.4,1.5-0.7
			c0.5-0.1,1.1-0.2,1.7-0.2C166.9,22.5,167.5,22.6,168,22.9z"/>
		<path class="st0" d="M180.1,37.7c-0.5,0.4-1.1,0.7-1.8,1c-0.7,0.3-1.4,0.4-2.2,0.4c-0.6,0-1.1-0.1-1.6-0.2c-0.5-0.1-1-0.4-1.3-0.7
			c-0.4-0.4-0.7-0.8-0.9-1.3c-0.2-0.5-0.3-1.2-0.3-2v-9.3v-1.9c0-0.2-0.1-0.4-0.2-0.6c-0.1-0.1-0.4-0.2-0.6-0.2v-0.2
			c0.7,0,1.3-0.1,2-0.3c0.7-0.2,1.3-0.4,1.9-0.8c0.5-0.3,1-0.7,1.4-1.2c0.4-0.4,0.6-0.9,0.7-1.4h0.2v3.7h2.2v0.2h-2.2v0.8V26v9.6
			c0,0.7,0.1,1.3,0.3,1.7c0.1,0.4,0.4,0.6,0.7,0.7c0.3,0.1,0.6,0.1,1-0.1c0.4-0.1,0.7-0.3,1-0.5L180.1,37.7z"/>
		<path class="st0" d="M195.4,38.2c0,0.2,0.1,0.4,0.2,0.6c0.1,0.1,0.4,0.2,0.6,0.2v0.2h-3.7c-0.7,0-1.3-0.1-1.6-0.4
			c-0.4-0.3-0.6-0.7-0.7-1.3c-0.4,0.5-1,0.9-1.6,1.2c-0.7,0.3-1.3,0.5-2.1,0.5c-0.7,0.1-1.4,0-2-0.1c-0.6-0.1-1.2-0.4-1.6-0.8
			s-0.8-0.9-1-1.5s-0.3-1.3-0.2-2c0.1-0.7,0.2-1.3,0.6-1.7c0.3-0.4,0.7-0.9,1.1-1.2c0.4-0.4,1-0.7,1.5-0.9c0.5-0.2,1.1-0.4,1.7-0.6
			c1.2-0.4,2-0.7,2.5-1c0.5-0.4,0.9-0.7,1-1v-1.6c0-1.3-0.1-2.2-0.4-2.8s-0.8-0.9-1.6-0.7c-1,0.1-1.6,0.4-1.7,1
			c-0.1,0.3,0,0.6,0.2,0.8c0.2,0.2,0.4,0.4,0.6,0.6c0.2,0.2,0.4,0.5,0.6,0.8s0.2,0.7,0.2,1c0,0.7-0.2,1.3-0.7,1.9
			c-0.5,0.5-1.1,0.7-1.9,0.7s-1.3-0.2-1.9-0.7c-0.5-0.5-0.7-1.1-0.7-1.9c0-0.6,0.1-1.2,0.5-1.8c0.3-0.5,0.8-1,1.4-1.5
			c0.6-0.4,1.3-0.7,2.1-1c0.7-0.2,1.6-0.4,2.5-0.4c0.9,0,1.7,0.1,2.5,0.4c0.7,0.2,1.5,0.5,2,1c0.6,0.4,1,0.9,1.4,1.5
			c0.4,0.5,0.5,1.1,0.5,1.8v9.5v0.2V38v0.1H195.4z M189.7,37.6c0.1-0.1,0.1-0.1,0.2-0.1c0.1-0.1,0.1-0.1,0.2-0.1
			c0-0.1-0.1-0.3-0.1-0.5c0-0.1,0-0.4,0-0.5V35v-6.4c-0.3,0.4-0.7,0.7-1,1c-0.4,0.3-0.7,0.6-1.1,1c-0.4,0.4-0.7,0.9-0.9,1.6
			c-0.2,0.7-0.4,1.5-0.4,2.6c0,0.8,0.1,1.5,0.3,2c0.2,0.4,0.4,0.8,0.8,1c0.3,0.2,0.7,0.3,1,0.2C189.1,37.9,189.4,37.8,189.7,37.6z"
			/>
		<path class="st0" d="M210,22.9c0.6,0.4,1,0.9,1.2,1.6c0.2,0.7,0.1,1.3-0.3,2c-0.4,0.7-0.9,1-1.6,1.3c-0.7,0.2-1.3,0.1-2-0.3
			c-0.7-0.4-1-0.9-1.3-1.6c-0.1-0.3-0.1-0.6-0.1-0.8c0-0.2,0.1-0.4,0.1-0.7c0.1-0.2,0.1-0.4,0.1-0.5s-0.1-0.3-0.1-0.4
			c-0.1-0.1-0.2-0.1-0.4-0.1c-0.1,0-0.4,0.1-0.5,0.1c-0.1,0.1-0.4,0.1-0.5,0.3c-0.2,0.1-0.4,0.2-0.5,0.4c0.1,0.3,0.1,0.7,0.1,1.3
			v7.5v1v4c0,0.2,0.1,0.4,0.2,0.6c0.1,0.1,0.4,0.2,0.6,0.2v0.2h-0.4h-2.8h-3.7V39c0.2,0,0.4-0.1,0.6-0.2s0.2-0.4,0.2-0.6v-4V23.6
			c0-0.2-0.1-0.4-0.2-0.6c-0.1-0.1-0.4-0.2-0.6-0.2v-0.2h3.7c1.3,0,2,0.5,2.2,1.5c0.3-0.2,0.6-0.4,1.1-0.7c0.4-0.2,1-0.4,1.5-0.7
			c0.5-0.1,1.1-0.2,1.7-0.2C208.9,22.5,209.4,22.6,210,22.9z"/>
		<path class="st0" d="M213.8,27.7v-4c0-0.2-0.1-0.4-0.2-0.6c-0.1-0.1-0.4-0.2-0.6-0.2v-0.2h3.7h2.8h0.4v0.2c-0.2,0-0.4,0.1-0.6,0.2
			c-0.1,0.1-0.2,0.4-0.2,0.6v4v6.4v4c0,0.2,0.1,0.4,0.2,0.6s0.4,0.2,0.6,0.2v0.2h-0.4h-2.8H213V39c0.2,0,0.4-0.1,0.6-0.2
			c0.1-0.1,0.2-0.4,0.2-0.6v-4V27.7z M219.2,18.3c0,0.7-0.3,1.3-0.8,1.9c-0.5,0.5-1.1,0.7-1.9,0.7s-1.3-0.2-1.9-0.7
			c-0.5-0.5-0.8-1.1-0.8-1.9c0-0.7,0.3-1.3,0.8-1.9s1.1-0.8,1.9-0.8s1.3,0.3,1.9,0.8C218.9,16.9,219.2,17.5,219.2,18.3z"/>
	</g>
	<g>
		
			<linearGradient id="SVGID_1_" gradientUnits="userSpaceOnUse" x1="40.055" y1="605" x2="77.4944" y2="605" gradientTransform="matrix(1 0 0 1 0 -570)">
			<stop  offset="0" style="stop-color:#592C80"/>
			<stop  offset="1" style="stop-color:#DE277F"/>
		</linearGradient>
		<path class="st1" d="M76.1,49.9c0,0,0.5-3.1,1.2-7c0.6-3.9,0.1-4-0.3-4.8c-0.4-0.7-0.2-1.4,0-2.3c0.2-0.9-0.6-1.9-0.6-1.9
			s-1.9-3.5-2.5-4.5s-3.4-6.8-4.1-8.3s-1.5-4.2-1.5-4.2c-9.1-7.9-19.3,0-19.3,0c-10.3,7.7-8.7,17.5-8.7,17.5s16.6,14.5,17.8,17.9
			c0,0,0.7,1.3,0.3,4.3C58.2,56.6,68.1,57.6,76.1,49.9z"/>
		<path class="st2" d="M75.9,35.7c0,0,0-1.7-1.9-1.8c0,0-0.7-0.1-0.8,0.7c0,0.3,0.1,0.8,0.7,0.8C74.3,35.4,75.4,34.9,75.9,35.7z"/>
		<g>
			<path class="st2" d="M76.9,38L76.9,38c-0.5-0.7-0.8-0.9-0.8-0.9c-0.2,0.4-1.1,0.4-1.7,0.3c-0.6-0.1-2.4-2.7-2.5-3.1s0-1.3,0-1.3
				s0.6-0.7,1.9-0.7c1.3,0.1,2.2,0.6,2.2,0.6l-2.6-4.8c-2.9-2.3-4.9-2-4.9-2l-5.1-12.3l-1.6-0.4L66.5,26c-7.8,0.5-10.1,5.2-10.1,5.2
				c0.5,2.3,4.3,3.9,4.3,3.9s1.3-2.9,5.1-3.3c2.2-0.2,2.8,2.5,2.8,2.5c-1-2-3.4-1.7-3.4-1.7c-3,0.4-3.7,3.1-3.7,3.1s2.3-2.3,4.3-2.2
				c1.9,0.1,2.5,1.1,2.6,1.3c0.1,0.2,0.6,0.9,0.6,0.9c-2.8,0.8-6.1,0.1-6.1,0.1c-2.9-0.1-1.9,3-1.9,3s1,3.1,2.2,5.9
				c1,2.7,4,4,6.7,3.1c0.1-0.1,0.2-0.1,0.2-0.1c2.5-1.3,4.7-0.6,4.7-0.6c1.6,0.7,1.3,2.3,1.3,2.6c0.1-0.4,0.6-3.4,1.2-6.9
				C77.9,39,77.3,38.8,76.9,38z M73.4,38c1.2,0,1.1,0.7,1.1,0.7s0.1,0.5,0.3,0.9s-0.1,1-0.3,1c-0.1,0.1-0.5,0.2-1,0
				c0,0-0.1,0.4-0.8,0.3c0,0,0.1-0.6-0.1-0.7c-0.2-0.1-1.9,0.4-2.6-0.5C70.1,39.8,72.2,38,73.4,38z M75.5,44.6
				c-0.7-1.6-1.7-1.8-2.6-1.9c-0.9-0.1-2.2,0.3-2.5,0.4c-0.4,0.1-1.6,0.4-1.5,0.4c0,0,0.7-0.7,1-1c0.8-0.6,2.4-1.4,2.4-1.4
				s0.3,0.4,0.9,0.4c0.5,0,0.8-0.3,0.8-0.3C75.7,42.5,75.5,44.6,75.5,44.6z"/>
			<path class="st2" d="M76.1,49.8C76.1,49.8,76.1,49.9,76.1,49.8C76.1,49.9,76.1,49.8,76.1,49.8z"/>
		</g>
		<path class="st2" d="M49.6,42.9c0,0-3.1-12.1,8.8-20c0,0-0.7-2,1-4c0,0-13,0.6-14.8,17.9c0,0,1,0.8,1.3,1.1
			c0,0,2.3-13.9,10.6-15.5c0,0-9.3,5.9-8.9,18.4"/>
	</g>
	<g>
		<path class="st0" d="M179.5,50.7c-0.8,0-1.4-0.1-1.9-0.4c-0.5-0.3-0.9-0.7-1.2-1.2c-0.3-0.5-0.4-1.1-0.4-1.9
			c0-0.8,0.1-1.5,0.4-2.2c0.3-0.7,0.6-1.3,1.1-1.8c0.5-0.5,1-0.9,1.6-1.2c0.6-0.3,1.3-0.4,2.1-0.4c1.1,0,1.9,0.3,2.5,0.8
			c0.6,0.5,0.9,1.3,0.9,2.2h-1.8c0-0.5-0.2-0.9-0.5-1.1c-0.3-0.3-0.8-0.4-1.3-0.4c-0.6,0-1.2,0.2-1.7,0.5c-0.5,0.3-0.9,0.8-1.2,1.4
			c-0.3,0.6-0.4,1.3-0.4,2c0,0.7,0.2,1.3,0.6,1.7c0.4,0.4,0.9,0.6,1.6,0.6c0.6,0,1.1-0.1,1.5-0.4c0.4-0.3,0.7-0.6,0.9-1.1h1.8
			c-0.3,0.9-0.9,1.6-1.7,2.1C181.5,50.5,180.6,50.7,179.5,50.7z"/>
		<path class="st0" d="M184.8,50.6l1.1-6.3h1.5l-0.1,1.1c0.3-0.4,0.7-0.7,1.1-0.9c0.4-0.2,0.9-0.4,1.4-0.4l-0.3,1.7h-0.4
			c-0.5,0-1,0.1-1.4,0.4c-0.4,0.2-0.6,0.7-0.8,1.4l-0.5,3H184.8z"/>
		<path class="st0" d="M192.8,50.7c-0.8,0-1.5-0.2-2-0.7c-0.5-0.5-0.7-1.1-0.7-1.9c0-0.5,0.1-1,0.3-1.5c0.2-0.5,0.5-0.9,0.8-1.2
			c0.3-0.4,0.8-0.6,1.2-0.8c0.5-0.2,1-0.3,1.6-0.3c0.6,0,1,0.1,1.4,0.3c0.4,0.2,0.7,0.5,0.9,0.9c0.2,0.4,0.3,0.8,0.3,1.3
			c0,0.2,0,0.4-0.1,0.6c0,0.2-0.1,0.4-0.1,0.6h-4.8c0,0.1,0,0.1,0,0.2c0,0.4,0.1,0.8,0.4,1c0.3,0.2,0.6,0.4,1,0.4
			c0.3,0,0.6-0.1,0.9-0.2c0.2-0.1,0.5-0.3,0.6-0.6h1.6c-0.2,0.4-0.5,0.8-0.8,1.1c-0.3,0.3-0.7,0.6-1.1,0.8
			C193.8,50.6,193.3,50.7,192.8,50.7z M193.8,45.5c-0.4,0-0.8,0.1-1.1,0.3c-0.3,0.2-0.6,0.6-0.8,1h3.1c0-0.1,0-0.1,0-0.1
			c0-0.4-0.1-0.7-0.3-0.9C194.5,45.6,194.1,45.5,193.8,45.5z"/>
		<path class="st0" d="M200.1,50.7c-0.5,0-1-0.1-1.3-0.4c-0.4-0.2-0.7-0.6-0.9-1c-0.2-0.4-0.3-0.9-0.3-1.4c0-0.7,0.2-1.4,0.5-1.9
			c0.3-0.6,0.7-1,1.3-1.4c0.5-0.3,1.1-0.5,1.8-0.5c0.5,0,0.9,0.1,1.3,0.3c0.3,0.2,0.6,0.4,0.7,0.7l0.6-3.7h1.6l-1.6,9.1h-1.4l0-0.9
			c-0.2,0.3-0.5,0.5-0.9,0.7C201.1,50.6,200.7,50.7,200.1,50.7z M200.7,49.3c0.4,0,0.7-0.1,1.1-0.3c0.3-0.2,0.6-0.5,0.7-0.8
			c0.2-0.3,0.3-0.7,0.3-1.1c0-0.4-0.1-0.8-0.4-1.1c-0.3-0.3-0.6-0.4-1.1-0.4c-0.4,0-0.7,0.1-1.1,0.3c-0.3,0.2-0.5,0.5-0.7,0.8
			c-0.2,0.3-0.3,0.7-0.3,1.1c0,0.4,0.1,0.8,0.4,1.1C199.9,49.1,200.3,49.3,200.7,49.3z"/>
		<path class="st0" d="M205.5,50.6l1.1-6.3h1.6l-1.1,6.3H205.5z M207.8,43.4c-0.3,0-0.5-0.1-0.7-0.3c-0.2-0.2-0.3-0.4-0.3-0.7
			c0-0.3,0.1-0.5,0.3-0.7c0.2-0.2,0.4-0.3,0.7-0.3c0.3,0,0.5,0.1,0.7,0.3c0.2,0.2,0.3,0.4,0.3,0.7c0,0.3-0.1,0.5-0.3,0.7
			C208.3,43.3,208.1,43.4,207.8,43.4z"/>
		<path class="st0" d="M211.6,50.6c-0.6,0-1-0.1-1.4-0.4c-0.3-0.2-0.5-0.6-0.5-1.2c0-0.2,0-0.4,0.1-0.6l0.5-2.7h-1l0.2-1.4h1
			l0.5-1.7h1.4l-0.3,1.7h1.7l-0.3,1.4h-1.7l-0.5,2.7c0,0.1,0,0.2,0,0.3c0,0.2,0.1,0.3,0.2,0.4c0.1,0.1,0.3,0.1,0.6,0.1h0.9l-0.3,1.4
			H211.6z"/>
		<path class="st0" d="M216.7,50.7c-0.6,0-1.1-0.1-1.5-0.3c-0.4-0.2-0.7-0.5-0.9-0.8c-0.2-0.3-0.3-0.7-0.3-1.2h1.6
			c0,0.3,0.1,0.5,0.3,0.7c0.2,0.2,0.5,0.3,0.9,0.3c0.4,0,0.6-0.1,0.8-0.2c0.2-0.2,0.3-0.3,0.3-0.6c0-0.2-0.1-0.4-0.3-0.5
			c-0.2-0.1-0.5-0.2-0.8-0.3c-0.3-0.1-0.7-0.2-1-0.3c-0.3-0.1-0.6-0.3-0.8-0.5s-0.3-0.5-0.3-0.8c0-0.4,0.1-0.8,0.4-1.1
			c0.2-0.3,0.6-0.6,1-0.7c0.4-0.2,0.9-0.3,1.5-0.3c0.7,0,1.3,0.2,1.8,0.5c0.4,0.4,0.6,0.8,0.6,1.4h-1.6c0-0.2-0.1-0.4-0.3-0.5
			c-0.2-0.1-0.4-0.2-0.7-0.2c-0.3,0-0.5,0.1-0.7,0.2c-0.2,0.1-0.3,0.3-0.3,0.5c0,0.2,0.1,0.3,0.3,0.4c0.2,0.1,0.5,0.2,0.9,0.3
			c0.4,0.1,0.8,0.2,1.1,0.3c0.3,0.1,0.6,0.3,0.8,0.5c0.2,0.2,0.3,0.5,0.3,0.8c0,0.5-0.1,0.9-0.4,1.2c-0.3,0.3-0.6,0.6-1.1,0.8
			S217.3,50.7,216.7,50.7z"/>
	</g>
</g>
</svg>
