<?xml version="1.0" encoding="utf-8"?>
<!-- Generator: Adobe Illustrator 21.0.0, SVG Export Plug-In . SVG Version: 6.00 Build 0)  -->
<svg version="1.1" id="layer" xmlns="http://www.w3.org/2000/svg" xmlns:xlink="http://www.w3.org/1999/xlink" x="0px" y="0px"
	 viewBox="0 0 260 70" style="enable-background:new 0 0 260 70;" xml:space="preserve">
<style type="text/css">
	.st0{fill:#FFFFFF;}
</style>
<g>
	<path class="st0" d="M56.1,32.3c0-1.5,0.3-2.7,1-3.5c0.3-0.3,0.8-0.6,1.3-0.8c0.6-0.2,1.1-0.3,1.6-0.3h6.2c2.7,0,4.1,1.5,4.2,4.5
		v9.2c0,1-0.4,2-1.3,2.7c-0.8,0.8-1.7,1.2-2.8,1.3h-5.9V52h-4.4V32.3z M66,33.2c0-0.7-0.3-1-1-1.1h-3.4c-0.8,0.1-1.2,0.5-1.3,1.3
		v6.1c0,0.8,0.5,1.3,1.4,1.3h3.1c0.3,0,0.6-0.1,0.8-0.4c0.2-0.2,0.3-0.4,0.3-0.7L66,33.2L66,33.2L66,33.2z"/>
	<path class="st0" d="M83.9,33.1c0-0.7-0.4-1-1.2-1H74v-4.5h9.9c2.9,0.1,4.3,1.4,4.4,4.2v9.3c0,1.2-0.4,2.2-1.1,2.9
		c-0.7,0.8-1.7,1.2-2.8,1.2h-6c-2.9,0-4.4-1.3-4.4-4v-3.6c0-2.8,1.4-4.2,4.2-4.2H84L83.9,33.1L83.9,33.1L83.9,33.1z M78.2,39.9
		c0,0.3,0.1,0.5,0.3,0.6c0.2,0.2,0.5,0.3,0.8,0.3h3.3c0.8,0,1.2-0.3,1.2-0.9v-1.3c0-0.7-0.4-1-1.2-1h-3.3c-0.4,0-0.7,0.1-0.9,0.2
		c-0.1,0.2-0.2,0.5-0.2,1V39.9L78.2,39.9z"/>
	<path class="st0" d="M100.5,47.5c0.3,0,0.6-0.1,0.9-0.4c0.2-0.2,0.3-0.4,0.3-0.7V46v-0.6h-5.6c-0.7,0-1.3-0.1-1.7-0.3
		c-0.5-0.2-0.9-0.5-1.4-0.9c-0.4-0.5-0.8-1-0.9-1.5c-0.2-0.5-0.3-1.1-0.3-1.8V27.7h4.4v11.8c0,1,0.4,1.4,1.2,1.4h3.1
		c0.4,0,0.7-0.1,1-0.4c0.3-0.2,0.4-0.5,0.4-0.8v-0.5V27.6h4.3v19.5c0,1.5-0.4,2.6-1.1,3.5c-0.7,0.9-1.7,1.3-3,1.3H91.8v-4.5
		L100.5,47.5L100.5,47.5L100.5,47.5z"/>
	<path class="st0" d="M109.4,40.8h7.8c0.7,0,1.1-0.3,1.1-0.8v-0.4c0-0.1,0-0.2-0.1-0.4c-0.2-0.3-0.4-0.5-0.6-0.5h-0.5h-3.4
		c-1.1,0-2.1-0.4-2.9-1.2c-0.8-0.7-1.3-1.6-1.3-2.6v-3.4c0.1-2.6,1.5-3.9,4.2-4h9v4.5h-7.6c-0.9,0-1.3,0.3-1.3,0.8v0.5
		c0,0.6,0.5,0.8,1.4,0.8h3.8c1,0,1.9,0.4,2.6,1.2c0.7,0.8,1.1,1.7,1.1,2.7v3.3c0,0.9-0.4,1.8-1.3,2.7c-0.4,0.4-0.8,0.8-1.2,0.9
		c-0.4,0.2-1,0.2-1.7,0.2h-9.1L109.4,40.8L109.4,40.8L109.4,40.8z"/>
	<path class="st0" d="M135.8,33.1c0-0.7-0.4-1-1.2-1h-8.8v-4.5h9.9c2.9,0.1,4.3,1.4,4.4,4.2v9.3c0,1.2-0.4,2.2-1.1,2.9
		c-0.7,0.8-1.7,1.2-2.8,1.2h-6c-2.9,0-4.4-1.3-4.4-4v-3.6c0-2.8,1.4-4.2,4.2-4.2h5.8L135.8,33.1L135.8,33.1L135.8,33.1z M130.2,39.9
		c0,0.3,0.1,0.5,0.3,0.6c0.2,0.2,0.5,0.3,0.8,0.3h3.3c0.8,0,1.1-0.3,1.2-0.9v-1.3c0-0.7-0.4-1-1.2-1h-3.3c-0.4,0-0.7,0.1-0.9,0.2
		c-0.1,0.2-0.2,0.5-0.2,1L130.2,39.9L130.2,39.9z"/>
	<path class="st0" d="M143.7,25.1c0-1.2,0.5-2.2,1.3-2.9c0.8-0.7,1.9-1.1,3.3-1.1h2.8v4.3h-1.7c-0.9,0-1.4,0.5-1.4,1.3v1h3.1v4.5
		H148v13.2h-4.4L143.7,25.1L143.7,25.1z"/>
	<path class="st0" d="M158.1,39.3v0.3c0,0.3,0.1,0.6,0.3,0.8c0.1,0.3,0.3,0.4,0.6,0.4h0.6h8.4v4.5h-9.5c-0.9,0-1.5-0.1-2-0.2
		c-0.5-0.2-1-0.5-1.4-0.8c-0.5-0.5-0.8-1-1-1.5c-0.2-0.5-0.3-1.2-0.3-2.1l0-9c0.1-2.7,1.5-4.1,4.2-4.1h5.9c2.7,0.1,4.1,1.5,4.1,4.3
		v3.5L158.1,39.3z M163.5,33L163.5,33c0-0.3-0.1-0.5-0.3-0.7c-0.2-0.1-0.5-0.2-0.8-0.2h-3c-0.4,0-0.7,0.1-1,0.3
		c-0.3,0.2-0.5,0.5-0.5,0.8V35L163.5,33z"/>
	<path class="st0" d="M177.2,45.3c-0.7,0-1.3-0.1-1.8-0.2c-0.6-0.1-1.1-0.3-1.7-0.8c-0.6-0.5-1-1.1-1.3-1.7
		c-0.2-0.6-0.3-1.3-0.3-2.2v-8.3c0-0.7,0.1-1.3,0.2-1.8c0.1-0.5,0.5-1,0.9-1.5c0.5-0.5,1.1-0.9,1.6-1c0.6-0.1,1.2-0.2,1.9-0.2h6.7v1
		h-6.5c-1.2,0-2.1,0.2-2.7,0.7c-0.7,0.5-1,1.4-1,2.7v8.3c0,0.6,0.1,1.2,0.3,1.7c0.2,0.6,0.5,1,0.9,1.4c0.5,0.3,1,0.6,1.4,0.7
		c0.5,0.1,1,0.1,1.5,0.1h6.2v1L177.2,45.3L177.2,45.3L177.2,45.3z"/>
	<path class="st0" d="M201.6,40.5c0,0.7-0.1,1.3-0.1,1.8c-0.1,0.6-0.4,1.1-0.9,1.6c-0.9,1-2,1.4-3.4,1.4H192c-1.3,0-2.4-0.4-3.3-1.2
		c-0.9-0.8-1.3-1.9-1.3-3.3V38c0.1-3,1.6-4.6,4.5-4.7h8.7v-1.2c0-1-0.3-1.8-0.8-2.6c-0.3-0.5-0.8-0.8-1.3-1c-0.5-0.1-1-0.2-1.6-0.2
		h-9.5v-1h9c0.8,0,1.6,0.1,2.2,0.2c0.3,0.1,0.7,0.2,1,0.4c0.3,0.2,0.6,0.5,0.9,0.8c0.8,1,1.2,2.2,1.2,3.6L201.6,40.5L201.6,40.5
		L201.6,40.5z M200.5,34.5h-8.8c-1,0-1.9,0.3-2.5,1c-0.6,0.6-0.9,1.5-0.9,2.6v2.7c0,0.5,0.1,1,0.2,1.4c0.1,0.4,0.4,0.8,0.8,1.2
		c0.8,0.6,1.6,0.9,2.5,0.9h5.3c2.2,0,3.3-1.2,3.3-3.5L200.5,34.5L200.5,34.5z"/>
	<path class="st0" d="M211.3,28.6c-2.4,0.1-3.6,1.4-3.6,4v12.8h-1V32.6c-0.1-3.3,1.5-5,4.8-5h1.2v1H211.3z"/>
	<path class="st0" d="M230,40.4c-0.1,3.4-1.9,5-5.4,4.9h-3.9c-0.8,0-1.5-0.1-2.2-0.2c-0.7-0.2-1.3-0.6-1.9-1.2
		c-0.5-0.6-0.8-1.1-0.9-1.7c-0.1-0.6-0.2-1.3-0.2-1.9v-7.6c0.1-3.4,1.8-5.1,5.2-5.1h8.2v-5.8h1L230,40.4L230,40.4z M229,28.6h-8.3
		c-0.6,0-1.1,0.1-1.6,0.2c-0.5,0.1-1,0.4-1.5,0.9c-0.4,0.5-0.7,0.9-0.8,1.3c-0.1,0.5-0.2,1-0.2,1.6v8.1c0,1.4,0.4,2.3,1.2,2.8
		c0.4,0.2,0.8,0.4,1.3,0.5c0.5,0.1,1,0.2,1.6,0.2h3.6c1.3,0,2.4-0.3,3.3-0.9c0.8-0.6,1.3-1.6,1.3-3.1L229,28.6L229,28.6L229,28.6z"
		/>
	<g>
		<path class="st0" d="M31.9,27c0.3-0.1,0.7-0.3,1-0.3c0.6-3,3.3-5.3,6.5-5.3c3.2,0,5.8,2.3,6.5,5.3c1,0.2,1.8,0.6,2.4,1.2
			c0-0.6,0-1.1-0.1-1.7C47.8,21.6,44,18,39.4,18c-4.8,0-8.7,3.8-8.9,8.5c0,0.4,0,0.8,0,1.3C30.9,27.5,31.3,27.2,31.9,27z"/>
		<path class="st0" d="M44.5,27.6H33.9c-0.5,0-1,0.1-1.6,0.3c-0.5,0.2-1,0.5-1.3,0.8c-0.7,0.8-1,1.9-1,3.5v8.3c0,1.5,0.3,2.7,1,3.5
			c0.3,0.3,0.8,0.6,1.3,0.8c0.6,0.2,1.1,0.3,1.6,0.3h10.6c2.7,0,4.2-1.5,4.2-4.5v-8.7C48.7,29.1,47.3,27.7,44.5,27.6z"/>
	</g>
</g>
</svg>
