<?xml version="1.0" encoding="utf-8"?>
<!-- Generator: Adobe Illustrator 21.0.0, SVG Export Plug-In . SVG Version: 6.00 Build 0)  -->
<svg version="1.1" id="Layer_1" xmlns="http://www.w3.org/2000/svg" xmlns:xlink="http://www.w3.org/1999/xlink" x="0px" y="0px"
	 viewBox="0 0 50 50" style="enable-background:new 0 0 50 50;" xml:space="preserve">
<style type="text/css">
	.st0{fill:url(#SVGID_1_);}
	.st1{fill:url(#SVGID_2_);}
	.st2{fill:#0D0F21;}
	.st3{fill:#FFFFFF;}
	.st4{fill:#592C80;}
</style>
<g>
	
		<linearGradient id="SVGID_1_" gradientUnits="userSpaceOnUse" x1="1.6202" y1="22.9728" x2="80.5433" y2="22.9728" gradientTransform="matrix(1 0 0 1 0 2)">
		<stop  offset="0" style="stop-color:#592C80;stop-opacity:0.1"/>
		<stop  offset="1" style="stop-color:#592C80;stop-opacity:0.8"/>
	</linearGradient>
	<path class="st0" d="M40.2,17.6c-0.7-0.7-1.6-1.3-2.5-1.7c-2.5-1.1-4.4-3.1-5.5-5.6c-2-4.6-6.6-7.8-11.9-7.8c-7,0-12.8,5.6-13,12.5
		c-0.1,3,0.8,5.7,2.4,8c2,2.9,2.5,6.5,1.5,9.8c-1.5,4.7-1,9.2,1.8,12c4.9,4.9,15,2.8,22.5-4.7C42.9,32.6,45.1,22.5,40.2,17.6
		L40.2,17.6z"/>
</g>
<linearGradient id="SVGID_2_" gradientUnits="userSpaceOnUse" x1="27.4481" y1="22.5" x2="44.2481" y2="22.5" gradientTransform="matrix(1 0 0 -1 0 50)">
	<stop  offset="0" style="stop-color:#592C80"/>
	<stop  offset="1" style="stop-color:#DE277F"/>
</linearGradient>
<path class="st1" d="M44.2,28.7v-2.5c0-0.2-0.2-0.4-0.4-0.4H42c-0.1-0.5-0.3-1-0.6-1.5l1.2-1.2c0.2-0.2,0.2-0.4,0-0.6l-1.8-1.8
	c-0.2-0.2-0.4-0.2-0.6,0L39,21.9c-0.5-0.3-1-0.5-1.5-0.6v-1.8c0-0.2-0.2-0.4-0.4-0.4h-2.5c-0.2,0-0.4,0.2-0.4,0.4v1.8
	c-0.5,0.1-1,0.3-1.5,0.6l-1.2-1.2c-0.2-0.2-0.4-0.2-0.6,0L29,22.4c-0.2,0.2-0.2,0.4,0,0.6l1.2,1.2c-0.3,0.5-0.5,1-0.6,1.5h-1.8
	c-0.2,0-0.4,0.2-0.4,0.4v2.5c0,0.2,0.2,0.4,0.4,0.4h1.8c0.1,0.5,0.3,1,0.6,1.5L29,31.9c-0.2,0.2-0.2,0.4,0,0.6l1.8,1.8
	c0.2,0.2,0.4,0.2,0.6,0l1.2-1.2c0.5,0.3,1,0.5,1.5,0.6v1.8c0,0.2,0.2,0.4,0.4,0.4H37c0.2,0,0.4-0.2,0.4-0.4v-1.8
	c0.5-0.1,1-0.3,1.5-0.6l1.2,1.2c0.2,0.2,0.4,0.2,0.6,0l1.8-1.8c0.2-0.2,0.2-0.4,0-0.6l-1.2-1.2c0.3-0.5,0.5-1,0.6-1.5h1.8
	C44,29.2,44.2,29,44.2,28.7L44.2,28.7z M35.8,30.8c-1.8,0-3.3-1.5-3.3-3.3s1.5-3.3,3.3-3.3s3.3,1.5,3.3,3.3S37.7,30.8,35.8,30.8z"/>
<g>
	<path class="st2" d="M37.1,36.3h-2.5c-0.5,0-0.9-0.4-0.9-0.9V34c-0.3-0.1-0.6-0.2-1-0.4l-1,1c-0.2,0.2-0.4,0.3-0.6,0.3l0,0
		c-0.2,0-0.5-0.1-0.6-0.3l-1.8-1.8c-0.2-0.2-0.3-0.4-0.3-0.6c0-0.2,0.1-0.5,0.3-0.6l1-1c-0.2-0.3-0.3-0.6-0.4-1h-1.4
		c-0.5,0-0.9-0.4-0.9-0.9v-2.5c0-0.5,0.4-0.9,0.9-0.9h1.4c0.1-0.3,0.2-0.6,0.4-1l-1-1c-0.3-0.3-0.3-0.9,0-1.2l1.8-1.8
		c0.3-0.3,0.9-0.3,1.2,0l1,1c0.3-0.2,0.6-0.3,1-0.4v-1.4c0-0.5,0.4-0.9,0.9-0.9h2.5c0.5,0,0.9,0.4,0.9,0.9v1.4
		c0.3,0.1,0.6,0.2,1,0.4l1-1c0.3-0.3,0.9-0.3,1.2,0l1.8,1.8c0.3,0.3,0.3,0.9,0,1.2l-1,1c0.2,0.3,0.3,0.6,0.4,1h1.4
		c0.5,0,0.9,0.4,0.9,0.9v2.5c0,0.5-0.4,0.9-0.9,0.9h-1.4c-0.1,0.3-0.2,0.6-0.4,1l1,1c0.2,0.2,0.3,0.4,0.3,0.6s-0.1,0.5-0.3,0.6
		l-1.8,1.8c-0.2,0.2-0.4,0.3-0.6,0.3c-0.2,0-0.5-0.1-0.6-0.3l-1-1c-0.3,0.2-0.6,0.3-1,0.4v1.4C38,35.9,37.6,36.3,37.1,36.3
		L37.1,36.3z M32.7,32.6c0.1,0,0.1,0,0.2,0.1c0.4,0.2,0.9,0.4,1.4,0.6c0.2,0.1,0.3,0.2,0.3,0.4v1.8h2.5v-1.8c0-0.2,0.1-0.4,0.3-0.4
		c0.5-0.1,0.9-0.3,1.4-0.6c0.2-0.1,0.4-0.1,0.5,0.1l1.2,1.2l1.8-1.8L41.1,31c-0.1-0.1-0.2-0.4-0.1-0.5c0.2-0.4,0.4-0.9,0.6-1.4
		c0.1-0.2,0.2-0.3,0.4-0.3h1.8v-2.5H42c-0.2,0-0.4-0.1-0.4-0.3c-0.1-0.5-0.3-0.9-0.6-1.4c-0.1-0.2-0.1-0.4,0.1-0.5l1.2-1.2l-1.8-1.8
		l-1.2,1.2c-0.1,0.1-0.4,0.2-0.5,0.1c-0.4-0.2-0.9-0.4-1.4-0.6c-0.2-0.1-0.3-0.2-0.3-0.4v-1.8h-2.5v1.8c0,0.2-0.1,0.4-0.3,0.4
		c-0.5,0.1-0.9,0.3-1.4,0.6c-0.2,0.1-0.4,0.1-0.5-0.1l-1.2-1.2l-1.8,1.8l1.2,1.2c0.1,0.1,0.2,0.4,0.1,0.5c-0.2,0.4-0.4,0.9-0.6,1.4
		c-0.1,0.2-0.2,0.3-0.4,0.3h-1.8v2.5h1.8c0.2,0,0.4,0.1,0.4,0.3c0.1,0.5,0.3,0.9,0.6,1.4c0.1,0.2,0.1,0.4-0.1,0.5l-1.2,1.2l1.8,1.8
		l1.2-1.2C32.4,32.7,32.5,32.6,32.7,32.6L32.7,32.6z M35.8,31.2c-2.1,0-3.7-1.7-3.7-3.7s1.7-3.7,3.7-3.7c2.1,0,3.7,1.7,3.7,3.7
		c0,0.4-0.1,0.8-0.2,1.1c-0.1,0.2-0.3,0.4-0.6,0.3c-0.2-0.1-0.4-0.3-0.3-0.6c0.1-0.3,0.1-0.6,0.1-0.8c0-1.6-1.3-2.9-2.9-2.9
		c-1.6,0-2.9,1.3-2.9,2.9s1.3,2.9,2.9,2.9c0.3,0,0.6-0.1,0.9-0.2c0.2-0.1,0.5,0,0.6,0.3c0.1,0.2,0,0.5-0.3,0.6
		C36.7,31.1,36.3,31.2,35.8,31.2z"/>
</g>
<path class="st3" d="M28.2,38v-1.8c0-0.2-0.2-0.4-0.4-0.4h-1.3c-0.1-0.4-0.3-0.8-0.5-1.1l0.9-0.9c0.2-0.2,0.2-0.4,0-0.6L25.7,32
	c-0.2-0.2-0.4-0.2-0.6,0l-0.9,0.9c-0.4-0.2-0.7-0.4-1.1-0.5v-1.3c0-0.2-0.2-0.4-0.4-0.4h-1.8c-0.2,0-0.4,0.2-0.4,0.4v1.3
	c-0.4,0.1-0.8,0.3-1.1,0.5L18.5,32c-0.2-0.2-0.4-0.2-0.6,0l-1.2,1.2c-0.2,0.2-0.2,0.4,0,0.6l0.9,0.9c-0.2,0.4-0.4,0.7-0.5,1.1h-1.3
	c-0.2,0-0.4,0.2-0.4,0.4V38c0,0.2,0.2,0.4,0.4,0.4h1.3c0.1,0.4,0.3,0.8,0.5,1.1l-0.9,0.9c-0.2,0.2-0.2,0.4,0,0.6l1.2,1.2
	c0.2,0.2,0.4,0.2,0.6,0l0.9-0.9c0.4,0.2,0.7,0.4,1.1,0.5v1.3c0,0.2,0.2,0.4,0.4,0.4h1.8c0.2,0,0.4-0.2,0.4-0.4v-1.3
	c0.4-0.1,0.8-0.3,1.1-0.5l0.9,0.9c0.2,0.2,0.4,0.2,0.6,0l1.2-1.2c0.2-0.2,0.2-0.4,0-0.6L26,39.5c0.2-0.4,0.4-0.7,0.5-1.1h1.3
	C28,38.5,28.2,38.3,28.2,38z M21.7,39.8c-1.5,0-2.6-1.2-2.6-2.6s1.2-2.6,2.6-2.6s2.6,1.2,2.6,2.6S23.2,39.8,21.7,39.8z"/>
<g>
	<path class="st2" d="M22.6,44.1h-1.8c-0.5,0-0.9-0.4-0.9-0.9v-0.9c-0.2-0.1-0.4-0.2-0.6-0.3l-0.7,0.7c-0.3,0.3-0.9,0.3-1.2,0
		l-1.2-1.2c-0.3-0.3-0.3-0.9,0-1.2l0.7-0.7c-0.1-0.2-0.2-0.4-0.3-0.6h-0.9c-0.5,0-0.9-0.4-0.9-0.9v-1.8c0-0.5,0.4-0.9,0.9-0.9h0.9
		c0.1-0.2,0.2-0.4,0.3-0.6l-0.7-0.7c-0.3-0.3-0.3-0.9,0-1.2l1.2-1.2c0.3-0.3,0.9-0.3,1.2,0l0.7,0.7c0.2-0.1,0.4-0.2,0.6-0.3v-0.9
		c0-0.5,0.4-0.9,0.9-0.9h1.8c0.5,0,0.9,0.4,0.9,0.9V32c0.2,0.1,0.4,0.2,0.6,0.3l0.7-0.7c0.3-0.3,0.9-0.3,1.2,0l1.2,1.2
		c0.3,0.3,0.3,0.9,0,1.2l-0.7,0.7c0.1,0.2,0.2,0.4,0.3,0.6h0.9c0.5,0,0.9,0.4,0.9,0.9V38c0,0.5-0.4,0.9-0.9,0.9h-0.9
		c-0.1,0.2-0.2,0.4-0.3,0.6l0.7,0.7c0.3,0.3,0.3,0.9,0,1.2L26,42.7c-0.3,0.3-0.9,0.3-1.2,0L24.1,42c-0.2,0.1-0.4,0.2-0.6,0.3v0.9
		C23.5,43.7,23.1,44.1,22.6,44.1L22.6,44.1z M19.3,41c0.1,0,0.1,0,0.2,0.1c0.3,0.2,0.7,0.3,1,0.4c0.2,0.1,0.3,0.2,0.3,0.4v1.3h1.8
		v-1.3c0-0.2,0.1-0.4,0.3-0.4c0.4-0.1,0.7-0.2,1-0.4c0.2-0.1,0.4-0.1,0.5,0.1l0.9,0.9l1.2-1.2L25.6,40c-0.1-0.1-0.2-0.4-0.1-0.5
		c0.2-0.3,0.3-0.7,0.4-1c0.1-0.2,0.2-0.3,0.4-0.3h1.3v-1.8h-1.3c-0.2,0-0.4-0.1-0.4-0.3c-0.1-0.4-0.2-0.7-0.4-1
		c-0.1-0.2-0.1-0.4,0.1-0.5l0.9-0.9l-1.2-1.2l-0.9,0.9c-0.1,0.1-0.4,0.2-0.5,0.1c-0.3-0.2-0.7-0.3-1-0.4c-0.2-0.1-0.3-0.2-0.3-0.4
		v-1.3h-1.8v1.3c0,0.2-0.1,0.4-0.3,0.4c-0.4,0.1-0.7,0.2-1,0.4c-0.2,0.1-0.4,0.1-0.5-0.1l-0.9-0.9l-1.2,1.2l0.9,0.9
		c0.1,0.1,0.2,0.4,0.1,0.5c-0.2,0.3-0.3,0.7-0.4,1c-0.1,0.2-0.2,0.3-0.4,0.3h-1.3V38h1.3c0.2,0,0.4,0.1,0.4,0.3
		c0.1,0.4,0.2,0.7,0.4,1c0.1,0.2,0.1,0.4-0.1,0.5l-0.9,0.9l1.2,1.2L19,41C19.1,41.1,19.2,41,19.3,41L19.3,41z M21.7,40.2
		c-1.7,0-3.1-1.4-3.1-3.1c0-1.7,1.4-3.1,3.1-3.1s3.1,1.4,3.1,3.1C24.8,38.8,23.4,40.2,21.7,40.2z M21.7,34.9c-1.2,0-2.2,1-2.2,2.2
		s1,2.2,2.2,2.2s2.2-1,2.2-2.2C23.9,35.9,22.9,34.9,21.7,34.9z"/>
</g>
<path class="st3" d="M28.2,19.4v-3.7c0-0.2-0.2-0.4-0.4-0.4h-2.5c-0.2-0.7-0.5-1.4-0.8-2l1.8-1.8c0.2-0.2,0.2-0.4,0-0.6l-2.6-2.6
	c-0.2-0.2-0.4-0.2-0.6,0l-1.8,1.8c-0.6-0.3-1.3-0.6-2-0.8V6.8c0-0.2-0.2-0.4-0.4-0.4h-3.7c-0.2,0-0.4,0.2-0.4,0.4v2.5
	c-0.7,0.2-1.4,0.5-2,0.8L11,8.4c-0.2-0.2-0.4-0.2-0.6,0L7.8,11c-0.2,0.2-0.2,0.4,0,0.6l1.8,1.8c-0.3,0.6-0.6,1.3-0.8,2H6.2
	c-0.2,0-0.4,0.2-0.4,0.4v3.7c0,0.2,0.2,0.4,0.4,0.4h2.5c0.2,0.7,0.5,1.4,0.8,2l-1.8,1.8c-0.2,0.2-0.2,0.4,0,0.6l2.6,2.6
	c0.2,0.2,0.4,0.2,0.6,0l1.8-1.8c0.6,0.3,1.3,0.6,2,0.8v2.5c0,0.2,0.2,0.4,0.4,0.4h3.7c0.2,0,0.4-0.2,0.4-0.4v-2.5
	c0.7-0.2,1.4-0.5,2-0.8l1.8,1.8c0.2,0.2,0.4,0.2,0.6,0l2.6-2.6c0.2-0.2,0.2-0.4,0-0.6l-1.8-1.8c0.3-0.6,0.6-1.3,0.8-2h2.5
	C28,19.9,28.2,19.7,28.2,19.4L28.2,19.4z M17,22.6c-2.7,0-5-2.2-5-5s2.2-5,5-5s5,2.2,5,5S19.7,22.6,17,22.6z"/>
<g>
	<path class="st2" d="M18.8,29.3h-3.7c-0.5,0-0.9-0.4-0.9-0.9v-2.2c-0.5-0.2-1-0.4-1.5-0.6l-1.5,1.5c-0.3,0.3-0.9,0.3-1.2,0
		l-2.6-2.6c-0.3-0.3-0.3-0.9,0-1.2L9,21.8c-0.2-0.5-0.4-1-0.6-1.5H6.2c-0.5,0-0.9-0.4-0.9-0.9v-3.7c0-0.5,0.4-0.9,0.9-0.9h2.2
		c0.2-0.5,0.4-1,0.6-1.5l-1.5-1.5c-0.3-0.3-0.3-0.9,0-1.2L10,8c0.3-0.3,0.9-0.3,1.2,0l1.5,1.5c0.5-0.2,1-0.4,1.5-0.6V6.8
		c0-0.5,0.4-0.9,0.9-0.9h3.7c0.5,0,0.9,0.4,0.9,0.9V9c0.5,0.2,1,0.4,1.5,0.6L22.7,8c0.3-0.3,0.9-0.3,1.2,0l2.6,2.6
		c0.3,0.3,0.3,0.9,0,1.2L25,13.4c0.2,0.5,0.4,1,0.6,1.5h2.2c0.5,0,0.9,0.4,0.9,0.9v3.7c0,0.5-0.4,0.9-0.9,0.9h-2.2
		c-0.2,0.5-0.4,1-0.6,1.5l1.5,1.5c0.3,0.3,0.3,0.9,0,1.2l-2.6,2.6c-0.2,0.2-0.4,0.3-0.6,0.3s-0.5-0.1-0.6-0.3l-1.5-1.5
		c-0.5,0.2-1,0.4-1.5,0.6v2.2C19.7,28.9,19.3,29.3,18.8,29.3L18.8,29.3z M12.7,24.6c0.1,0,0.1,0,0.2,0.1c0.6,0.3,1.2,0.6,1.9,0.8
		c0.2,0.1,0.3,0.2,0.3,0.4v2.5h3.7v-2.5c0-0.2,0.1-0.4,0.3-0.4c0.7-0.2,1.3-0.4,1.9-0.8c0.2-0.1,0.4-0.1,0.5,0.1l1.8,1.8l2.6-2.6
		l-1.8-1.8c-0.1-0.2-0.1-0.4,0-0.6c0.3-0.6,0.6-1.2,0.8-1.9c0.1-0.2,0.2-0.3,0.4-0.3h2.5v-3.7h-2.5c-0.2,0-0.4-0.1-0.4-0.3
		c-0.2-0.7-0.4-1.3-0.8-1.9c-0.1-0.1-0.1-0.3,0-0.5l1.8-1.8l-2.6-2.6l-1.8,1.8c-0.1,0.1-0.4,0.2-0.5,0.1c-0.6-0.3-1.2-0.6-1.9-0.8
		c-0.2-0.1-0.3-0.2-0.3-0.4V6.8h-3.7v2.5c0,0.2-0.1,0.4-0.3,0.4c-0.7,0.2-1.3,0.4-1.9,0.8c-0.2,0.1-0.4,0.1-0.5-0.1l-1.8-1.8L8,11.2
		L9.8,13c0.1,0.1,0.2,0.4,0.1,0.5c-0.3,0.6-0.6,1.2-0.8,1.9c-0.1,0.2-0.2,0.3-0.4,0.3H6.2v3.7h2.5c0.2,0,0.4,0.1,0.4,0.3
		c0.2,0.7,0.4,1.3,0.8,1.9C10,21.8,10,22,9.8,22.2L8,24l2.6,2.6l1.8-1.8C12.5,24.7,12.6,24.6,12.7,24.6L12.7,24.6z M17,23
		c-0.9,0-1.8-0.2-2.6-0.7c-0.2-0.1-0.3-0.4-0.2-0.6s0.4-0.3,0.6-0.2c0.7,0.4,1.4,0.6,2.2,0.6c2.5,0,4.5-2,4.5-4.5s-2-4.5-4.5-4.5
		s-4.5,2-4.5,4.5c0,0.7,0.2,1.4,0.5,2c0.1,0.2,0,0.5-0.2,0.6s-0.5,0-0.6-0.2c-0.4-0.8-0.6-1.6-0.6-2.4c0-3,2.4-5.4,5.4-5.4
		s5.4,2.4,5.4,5.4S20,23,17,23L17,23z"/>
</g>
<g>
	<path class="st4" d="M35.8,11.8c-0.6,0-1.2-0.5-1.2-1.2c0-0.6,0.5-1.2,1.2-1.2c0.6,0,1.2,0.5,1.2,1.2C37,11.2,36.5,11.8,35.8,11.8z
		 M35.8,10.3c-0.2,0-0.3,0.1-0.3,0.3s0.1,0.3,0.3,0.3s0.3-0.1,0.3-0.3C36.1,10.4,36,10.3,35.8,10.3z"/>
</g>
<g>
	<path class="st4" d="M6.9,35.3c-0.6,0-1.2-0.5-1.2-1.2c0-0.6,0.5-1.2,1.2-1.2c0.6,0,1.2,0.5,1.2,1.2C8.1,34.8,7.6,35.3,6.9,35.3z
		 M6.9,33.9c-0.2,0-0.3,0.1-0.3,0.3s0.1,0.3,0.3,0.3s0.3-0.1,0.3-0.3C7.2,34,7.1,33.9,6.9,33.9z"/>
</g>
<g>
	<path class="st4" d="M21.7,6.8c-0.6,0-1.2-0.5-1.2-1.2c0-0.6,0.5-1.2,1.2-1.2s1.2,0.5,1.2,1.2S22.4,6.8,21.7,6.8z M21.7,5.4
		c-0.2,0-0.3,0.1-0.3,0.3c0,0.2,0.1,0.3,0.3,0.3S22,5.8,22,5.7C22,5.5,21.9,5.4,21.7,5.4z"/>
</g>
</svg>
