<?xml version="1.0" encoding="utf-8"?>
<!-- Generator: Adobe Illustrator 21.0.0, SVG Export Plug-In . SVG Version: 6.00 Build 0)  -->
<svg version="1.1" id="Layer_1" xmlns="http://www.w3.org/2000/svg" xmlns:xlink="http://www.w3.org/1999/xlink" x="0px" y="0px"
	 viewBox="0 0 51.7 59.8" style="enable-background:new 0 0 51.7 59.8;" xml:space="preserve">
<style type="text/css">
	.st0{fill:url(#SVGID_1_);}
	.st1{fill:#FFFFFF;}
</style>
<g>
	
		<linearGradient id="SVGID_1_" gradientUnits="userSpaceOnUse" x1="0" y1="30.1211" x2="51.6089" y2="30.1211" gradientTransform="matrix(1 0 0 -1 0 60)">
		<stop  offset="0" style="stop-color:#592C80"/>
		<stop  offset="1" style="stop-color:#DE277F"/>
	</linearGradient>
	<path class="st0" d="M49.6,50.4c0,0,0.7-4.2,1.7-9.6c0.8-5.4,0.1-5.6-0.4-6.6s-0.3-2,0-3.2c0.3-1.2-0.8-2.7-0.8-2.7
		s-2.7-4.9-3.5-6.2c-0.8-1.3-4.8-9.4-5.7-11.5c-0.9-2.1-2.1-5.8-2.1-5.8c-12.6-10.9-26.7,0-26.7,0C-2.1,15.5,0.1,29,0.1,29
		S23.1,49,24.6,53.7c0,0,1,1.8,0.4,6C25,59.7,38.7,61,49.6,50.4z"/>
	<path class="st1" d="M49.4,30.9c0,0,0-2.4-2.6-2.5c0,0-1-0.1-1.1,0.9c0,0.4,0.1,1.1,0.9,1.1C47.2,30.5,48.7,29.7,49.4,30.9z"/>
	<g>
		<path class="st1" d="M50.8,34.1L50.8,34.1c-0.3-0.4-0.5-0.7-0.7-0.9c-0.2-0.2-0.5-0.2-0.7-0.1c-0.5,0.3-1.6,0.3-2.3,0.2
			c-0.8-0.1-3.1-3.8-3.3-4.3c-0.1-0.3-0.1-0.8-0.1-1.2c0-0.4,0.3-0.8,0.6-1c0.4-0.2,1.1-0.5,2.1-0.5c1.9,0.1,3,0.8,3,0.8l-3.6-6.6
			c-4-3.2-6.7-2.8-6.7-2.8L32,0.7l-2.3-0.6l6.8,17.5c-10.7,0.7-14,7.2-14,7.2c0.7,3.2,5.9,5.4,5.9,5.4s1.9-4,7-4.5
			c3.1-0.3,3.9,3.4,3.9,3.4c-1.4-2.8-4.7-2.4-4.7-2.4c-4.1,0.5-5.2,4.2-5.2,4.2s3.2-3.2,5.9-3c2.7,0.2,3.4,1.6,3.6,1.9
			c0.2,0.3,0.8,1.2,0.8,1.2c-3.9,1.1-8.4,0.1-8.4,0.1c-4-0.1-2.7,4.1-2.7,4.1s1.4,4.2,3,8.2c1.4,3.7,5.5,5.6,9.2,4.2
			c0.2-0.1,0.3-0.1,0.3-0.1c3.5-1.8,6.5-0.8,6.5-0.8c2.2,0.9,1.9,3.2,1.9,3.6c0.1-0.6,0.8-4.7,1.7-9.5
			C52.1,35.4,51.4,35.1,50.8,34.1z M45.9,34c1.7,0,1.6,1,1.6,1s0.1,0.7,0.4,1.2c0.3,0.5-0.2,1.3-0.4,1.4c-0.2,0.1-0.7,0.3-1.3,0
			c0,0-0.2,0.6-1.1,0.4c0,0,0.2-0.8-0.2-0.9c-0.3-0.1-2.7,0.6-3.6-0.7C41.4,36.4,44.4,34,45.9,34z M48.9,43.2
			c-1-2.2-2.4-2.5-3.6-2.6c-1.2-0.2-3,0.4-3.5,0.6c-0.6,0.2-2.2,0.6-2.1,0.6c0,0,1-1,1.4-1.3c1.1-0.8,3.3-2,3.3-2s0.4,0.6,1.2,0.6
			c0.7,0,1.1-0.4,1.1-0.4C49.1,40.3,48.9,43.2,48.9,43.2z"/>
		<path class="st1" d="M49.6,50.3C49.6,50.3,49.6,50.4,49.6,50.3C49.6,50.4,49.6,50.3,49.6,50.3z"/>
	</g>
	<path class="st1" d="M13.2,40.8c0,0-4.3-16.7,12.1-27.6c0,0-1-2.8,1.3-5.5c0,0-18,0.8-20.5,24.7c0,0,1.3,1.1,1.8,1.6
		c0,0,3.2-19.2,14.6-21.4c0,0-12.8,8.2-12.3,25.4"/>
</g>
</svg>
