<?xml version="1.0" encoding="utf-8"?>
<!-- Generator: Adobe Illustrator 21.0.0, SVG Export Plug-In . SVG Version: 6.00 Build 0)  -->
<svg version="1.1" id="Layer_1" xmlns="http://www.w3.org/2000/svg" xmlns:xlink="http://www.w3.org/1999/xlink" x="0px" y="0px"
	 viewBox="0 0 240 58" style="enable-background:new 0 0 240 58;" xml:space="preserve">
<style type="text/css">
	.st0{fill:#0D0F21;}
	.st1{fill:url(#SVGID_1_);}
	.st2{fill:#FFFFFF;}
</style>
<g>
	<g>
		<path class="st0" d="M93.5,11.1v0.3c-1.2,0-2.3,0.4-3.1,1.3c-0.8,0.8-1.3,1.9-1.3,3.1v25.5c0,0.3,0.1,0.6,0.3,0.8
			c0.2,0.2,0.5,0.3,0.8,0.3v0.3H82L70.5,13v25c0,0.6,0.1,1.2,0.3,1.7c0.2,0.5,0.5,1,0.9,1.4s0.8,0.7,1.4,0.9
			c0.5,0.2,1.1,0.3,1.7,0.3v0.2h-8.9v-0.2c0.6,0,1.2-0.1,1.7-0.3s1-0.5,1.4-0.9s0.7-0.9,0.9-1.4c0.2-0.5,0.3-1.1,0.3-1.7V12.5
			c0-0.3-0.1-0.6-0.3-0.8c-0.2-0.2-0.5-0.3-0.8-0.3v-0.3h8.2l11.6,29.6v-25c0-0.6-0.1-1.2-0.3-1.7c-0.2-0.5-0.5-1-0.9-1.4
			s-0.9-0.7-1.4-0.9s-1.1-0.3-1.7-0.3v-0.3C84.6,11.1,93.5,11.1,93.5,11.1z"/>
		<path class="st0" d="M109.1,32.9c1,0,1.8,0.4,2.5,1.1c0.7,0.7,1.1,1.5,1.1,2.5c0,0.9-0.2,1.7-0.7,2.4s-1.1,1.4-1.9,2
			s-1.7,1-2.7,1.3s-2.2,0.5-3.4,0.5c-1.6,0-3-0.3-4.3-0.9c-1.3-0.6-2.4-1.4-3.2-2.4c-0.9-1-1.6-2.2-2-3.5c-0.5-1.3-0.7-2.8-0.7-4.3
			s0.2-3,0.7-4.3s1.1-2.5,2-3.5s2-1.8,3.2-2.4c1.3-0.6,2.7-0.9,4.3-0.9c1.4,0,2.8,0.3,4,0.8s2.2,1.2,3.1,2s1.5,1.8,2,2.8
			s0.7,2.1,0.7,3.1h-13v2.3v2.9c0,1.5,0.1,2.8,0.2,3.8c0.2,1,0.4,1.8,0.7,2.4c0.3,0.6,0.7,1,1.2,1.3s1.1,0.4,1.8,0.4
			c0.5,0,1-0.1,1.6-0.3s1-0.6,1.1-1.2c0.1-0.4,0-0.8-0.2-1.1c-0.3-0.3-0.5-0.5-0.7-0.8c-0.7-0.7-1.1-1.6-1.1-2.6s0.4-1.8,1.1-2.5
			C107.3,33.2,108.1,32.9,109.1,32.9z M103,21c-0.8,0.4-1.3,1.2-1.7,2.4c-0.4,1.2-0.5,2.9-0.5,5.3V29h6.4c0-0.8,0-1.6,0-2.4
			s-0.1-1.6-0.3-2.3c-0.2-0.7-0.4-1.4-0.7-1.9c-0.3-0.6-0.7-1-1.3-1.3c-0.1,0-0.2-0.1-0.3-0.1c-0.2-0.1-0.3-0.1-0.6-0.1
			c-0.2,0-0.4,0-0.6,0.1C103.2,20.9,103.1,20.9,103,21z"/>
		<path class="st0" d="M126.3,11.1c1.1,0,2.2,0.2,3.1,0.5c1,0.3,1.8,0.8,2.5,1.3c0.7,0.6,1.2,1.2,1.6,2c0.4,0.7,0.6,1.5,0.6,2.4
			c0,1-0.4,1.8-1.1,2.5c-0.7,0.7-1.5,1.1-2.5,1.1s-1.8-0.4-2.5-1.1s-1.1-1.5-1.1-2.5s0.4-1.8,1.1-2.6c0.2-0.2,0.5-0.5,0.7-0.8
			c0.3-0.3,0.3-0.6,0.2-1.1s-0.4-0.9-0.8-1.1c-0.4-0.2-0.8-0.3-1.2-0.3c-1.1,0-1.8,0.5-2.2,1.6c-0.3,1.1-0.5,2.8-0.5,5.2V25v1.6h1.2
			c1,0,1.8-0.3,2.5-1s1-1.5,1-2.5h0.3v7.4H129c0-1-0.3-1.8-1-2.5s-1.5-1-2.5-1h-1.2v14.2c0,0.3,0.1,0.6,0.3,0.8
			c0.2,0.2,0.5,0.3,0.8,0.3v0.3h-8.7H116v-0.3c0.3,0,0.6-0.1,0.8-0.3c0.2-0.2,0.3-0.5,0.3-0.8v-1.3v-19c0-3.1,0.8-5.5,2.4-7.2
			C121.1,12,123.4,11.1,126.3,11.1z"/>
		<path class="st0" d="M147.6,32.9c1,0,1.8,0.4,2.5,1.1c0.7,0.7,1.1,1.5,1.1,2.5c0,0.9-0.2,1.7-0.7,2.4s-1.1,1.4-1.9,2
			c-0.8,0.6-1.7,1-2.7,1.3s-2.2,0.5-3.4,0.5c-1.6,0-3-0.3-4.3-0.9c-1.3-0.6-2.4-1.4-3.2-2.4c-0.9-1-1.6-2.2-2-3.5
			c-0.5-1.3-0.7-2.8-0.7-4.3s0.2-3,0.7-4.3s1.1-2.5,2-3.5s2-1.8,3.2-2.4c1.3-0.6,2.7-0.9,4.3-0.9c1.4,0,2.8,0.3,4,0.8s2.2,1.2,3.1,2
			c0.9,0.8,1.5,1.8,2,2.8s0.7,2.1,0.7,3.1h-13v2.3v2.9c0,1.5,0.1,2.8,0.2,3.8c0.2,1,0.4,1.8,0.7,2.4c0.3,0.6,0.7,1,1.2,1.3
			s1.1,0.4,1.8,0.4c0.5,0,1-0.1,1.6-0.3s1-0.6,1.1-1.2c0.1-0.4,0-0.8-0.2-1.1c-0.3-0.3-0.5-0.5-0.7-0.8c-0.7-0.7-1.1-1.6-1.1-2.6
			s0.4-1.8,1.1-2.5C145.8,33.2,146.6,32.9,147.6,32.9z M141.6,21c-0.8,0.4-1.3,1.2-1.7,2.4c-0.4,1.2-0.5,2.9-0.5,5.3V29h6.4
			c0-0.8,0-1.6,0-2.4s-0.1-1.6-0.3-2.3c-0.2-0.7-0.4-1.4-0.7-1.9c-0.3-0.6-0.7-1-1.3-1.3c-0.1,0-0.2-0.1-0.3-0.1
			c-0.2-0.1-0.3-0.1-0.6-0.1c-0.2,0-0.4,0-0.6,0.1C141.7,20.9,141.6,20.9,141.6,21z"/>
		<path class="st0" d="M170.6,20.9c0.8,0.5,1.4,1.2,1.6,2.2c0.3,0.9,0.1,1.8-0.4,2.7c-0.5,0.9-1.2,1.4-2.2,1.7
			c-0.9,0.3-1.8,0.1-2.7-0.4s-1.4-1.2-1.7-2.2c-0.1-0.4-0.2-0.8-0.1-1.1c0-0.3,0.1-0.6,0.1-0.9c0.1-0.3,0.1-0.5,0.1-0.7
			s-0.1-0.4-0.2-0.5c-0.1-0.1-0.3-0.2-0.5-0.1c-0.2,0-0.5,0.1-0.7,0.2s-0.5,0.2-0.7,0.4c-0.3,0.2-0.5,0.3-0.7,0.5
			c0.1,0.4,0.2,1,0.2,1.7v10v1.4v5.4c0,0.3,0.1,0.6,0.3,0.8s0.5,0.3,0.8,0.3v0.3h-0.6h-3.7h-5v-0.3c0.3,0,0.6-0.1,0.8-0.3
			s0.3-0.5,0.3-0.8v-5.4v-14c0-0.3-0.1-0.6-0.3-0.8c-0.2-0.2-0.5-0.3-0.8-0.3v-0.3h5c1.7,0,2.7,0.7,3,2c0.4-0.3,0.8-0.6,1.5-0.9
			c0.6-0.3,1.3-0.6,2-0.9c0.7-0.2,1.5-0.3,2.3-0.3C169.2,20.3,169.9,20.5,170.6,20.9z"/>
		<path class="st0" d="M186.7,40.6c-0.7,0.5-1.5,0.9-2.4,1.3c-0.9,0.4-1.9,0.6-2.9,0.6c-0.8,0-1.5-0.1-2.2-0.3s-1.3-0.5-1.8-1
			s-0.9-1.1-1.2-1.8s-0.4-1.6-0.4-2.7V24.3v-2.5c0-0.3-0.1-0.6-0.3-0.8c-0.2-0.2-0.5-0.3-0.8-0.3v-0.3c0.9,0,1.8-0.1,2.7-0.4
			s1.7-0.6,2.5-1.1c0.7-0.4,1.4-1,1.9-1.6s0.8-1.2,0.9-1.9h0.3v4.9h2.9v0.3H183v1.1V25v12.8c0,1,0.1,1.8,0.4,2.3
			c0.2,0.5,0.5,0.8,0.9,0.9c0.4,0.1,0.8,0.1,1.3-0.1c0.5-0.2,0.9-0.4,1.4-0.7L186.7,40.6z"/>
		<path class="st0" d="M207.2,41.2c0,0.3,0.1,0.6,0.3,0.8s0.5,0.3,0.8,0.3v0.3h-5c-1,0-1.7-0.2-2.2-0.5c-0.5-0.4-0.8-1-0.9-1.8
			c-0.6,0.7-1.3,1.2-2.2,1.6c-0.9,0.4-1.8,0.7-2.8,0.7c-1,0.1-1.9,0-2.7-0.2s-1.6-0.6-2.2-1.1c-0.6-0.5-1.1-1.2-1.4-2
			c-0.3-0.8-0.4-1.7-0.3-2.7c0.1-0.9,0.3-1.7,0.8-2.3c0.4-0.6,0.9-1.2,1.5-1.6c0.6-0.5,1.3-0.9,2-1.2c0.7-0.3,1.5-0.6,2.3-0.8
			c1.6-0.5,2.7-1,3.4-1.4c0.7-0.5,1.2-0.9,1.4-1.3v-2.2c0-1.7-0.2-3-0.6-3.8c-0.4-0.8-1.1-1.2-2.2-1c-1.4,0.2-2.2,0.6-2.3,1.4
			c-0.1,0.4,0,0.8,0.3,1.1c0.3,0.3,0.5,0.5,0.8,0.8s0.6,0.7,0.8,1.1s0.3,0.9,0.3,1.4c0,1-0.3,1.8-1,2.5s-1.5,1-2.5,1s-1.8-0.3-2.5-1
			s-1-1.5-1-2.5c0-0.8,0.2-1.6,0.7-2.4c0.4-0.7,1.1-1.4,1.9-2c0.8-0.6,1.7-1,2.8-1.3c1-0.3,2.2-0.5,3.4-0.5s2.3,0.2,3.4,0.5
			c1,0.3,2,0.7,2.7,1.3c0.8,0.6,1.4,1.2,1.9,2c0.5,0.7,0.7,1.5,0.7,2.4v12.7v0.3V41v0.2H207.2z M199.6,40.5c0.1-0.1,0.2-0.2,0.3-0.2
			c0.1-0.1,0.2-0.2,0.3-0.2c0-0.2-0.1-0.4-0.1-0.7c0-0.2,0-0.5,0-0.7V37v-8.6c-0.4,0.5-0.9,1-1.4,1.4s-1,0.8-1.5,1.3
			s-0.9,1.2-1.2,2.1c-0.3,0.9-0.5,2-0.5,3.5c0,1.1,0.1,2,0.4,2.7c0.3,0.6,0.6,1.1,1.1,1.4c0.4,0.3,0.9,0.4,1.4,0.3
			C198.8,40.9,199.2,40.7,199.6,40.5z"/>
		<path class="st0" d="M226.6,20.9c0.8,0.5,1.4,1.2,1.6,2.2c0.3,0.9,0.1,1.8-0.4,2.7c-0.5,0.9-1.2,1.4-2.2,1.7
			c-0.9,0.3-1.8,0.1-2.7-0.4s-1.4-1.2-1.7-2.2c-0.1-0.4-0.2-0.8-0.1-1.1c0-0.3,0.1-0.6,0.1-0.9c0.1-0.3,0.1-0.5,0.1-0.7
			s-0.1-0.4-0.2-0.5c-0.1-0.1-0.3-0.2-0.5-0.1c-0.2,0-0.5,0.1-0.7,0.2s-0.5,0.2-0.7,0.4c-0.3,0.2-0.5,0.3-0.7,0.5
			c0.1,0.4,0.2,1,0.2,1.7v10v1.4v5.4c0,0.3,0.1,0.6,0.3,0.8s0.5,0.3,0.8,0.3v0.3h-0.6h-3.7h-5v-0.3c0.3,0,0.6-0.1,0.8-0.3
			s0.3-0.5,0.3-0.8v-5.4v-14c0-0.3-0.1-0.6-0.3-0.8c-0.2-0.2-0.5-0.3-0.8-0.3v-0.3h5c1.7,0,2.7,0.7,3,2c0.4-0.3,0.8-0.6,1.5-0.9
			c0.6-0.3,1.3-0.6,2-0.9c0.7-0.2,1.5-0.3,2.3-0.3C225.2,20.3,225.9,20.5,226.6,20.9z"/>
		<path class="st0" d="M231.7,27.2v-5.3c0-0.3-0.1-0.6-0.3-0.8c-0.2-0.2-0.5-0.3-0.8-0.3v-0.3h5h3.7h0.6v0.3c-0.3,0-0.6,0.1-0.8,0.3
			c-0.2,0.2-0.3,0.5-0.3,0.8v5.3v8.6v5.4c0,0.3,0.1,0.6,0.3,0.8s0.5,0.3,0.8,0.3v0.3h-0.6h-3.7h-5v-0.3c0.3,0,0.6-0.1,0.8-0.3
			s0.3-0.5,0.3-0.8v-5.4V27.2z M238.9,14.7c0,1-0.4,1.8-1.1,2.5c-0.7,0.7-1.5,1-2.5,1s-1.8-0.3-2.5-1s-1.1-1.5-1.1-2.5
			s0.4-1.8,1.1-2.5c0.7-0.7,1.5-1.1,2.5-1.1s1.8,0.4,2.5,1.1C238.5,12.9,238.9,13.7,238.9,14.7z"/>
	</g>
	
		<linearGradient id="SVGID_1_" gradientUnits="userSpaceOnUse" x1="-2.858353e-02" y1="30.8569" x2="49.9063" y2="30.8569" gradientTransform="matrix(1 0 0 -1 0 60)">
		<stop  offset="0" style="stop-color:#592C80"/>
		<stop  offset="1" style="stop-color:#DE277F"/>
	</linearGradient>
	<path class="st1" d="M48,49c0,0,0.7-4.1,1.6-9.3c0.8-5.2,0.1-5.4-0.4-6.4s-0.3-1.9,0-3.1s-0.8-2.6-0.8-2.6s-2.6-4.7-3.4-6
		s-4.6-9.1-5.5-11.1s-2-5.6-2-5.6c-12.2-10.5-25.8,0-25.8,0C-2.1,15.2,0.1,28.3,0.1,28.3s22.2,19.3,23.7,23.9c0,0,1,1.7,0.4,5.8
		C24.2,58,37.4,59.3,48,49z"/>
	<path class="st2" d="M47.8,30.1c0,0,0-2.3-2.5-2.4c0,0-1-0.1-1.1,0.9c0,0.4,0.1,1.1,0.9,1.1C45.6,29.7,47.1,29,47.8,30.1z"/>
	<g>
		<path class="st2" d="M49.1,33.2L49.1,33.2C48.4,32.2,48,32,48,32c-0.3,0.5-1.5,0.5-2.3,0.4s-3.2-3.6-3.4-4.1s0-1.8,0-1.8
			s0.8-0.9,2.5-0.9c1.8,0.1,2.9,0.8,2.9,0.8L44.2,20c-3.9-3.1-6.5-2.7-6.5-2.7L30.9,0.9l-2.2-0.6l6.6,16.9c-10.4,0.7-13.5,7-13.5,7
			c0.7,3.1,5.7,5.2,5.7,5.2s1.8-3.9,6.8-4.4c3-0.3,3.8,3.3,3.8,3.3c-1.4-2.7-4.5-2.3-4.5-2.3c-4,0.5-5,4.1-5,4.1s3.1-3.1,5.7-2.9
			s3.3,1.5,3.5,1.8c0.2,0.3,0.8,1.2,0.8,1.2c-3.8,1.1-8.1,0.1-8.1,0.1c-3.9-0.1-2.6,4-2.6,4s1.4,4.1,2.9,7.9
			c1.4,3.6,5.3,5.4,8.9,4.1c0.2-0.1,0.3-0.1,0.3-0.1c3.4-1.7,6.3-0.8,6.3-0.8c2.1,0.9,1.8,3.1,1.8,3.5c0.1-0.6,0.8-4.5,1.6-9.2
			C50.4,34.5,49.7,34.2,49.1,33.2z M44.4,33.1c1.6,0,1.5,1,1.5,1s0.1,0.7,0.4,1.2c0.3,0.5-0.2,1.3-0.4,1.4s-0.7,0.3-1.3,0
			c0,0-0.2,0.6-1.1,0.4c0,0,0.2-0.8-0.2-0.9c-0.3-0.1-2.6,0.6-3.5-0.7C40,35.5,42.9,33.1,44.4,33.1z M47.3,42
			c-1-2.1-2.3-2.4-3.5-2.5c-1.2-0.2-2.9,0.4-3.4,0.6c-0.6,0.2-2.1,0.6-2,0.6c0,0,1-1,1.4-1.3c1.1-0.8,3.2-1.9,3.2-1.9
			s0.4,0.6,1.2,0.6c0.7,0,1.1-0.4,1.1-0.4C47.5,39.2,47.3,42,47.3,42z"/>
		<path class="st2" d="M48,48.9C48,48.9,48,49,48,48.9C48,49,48,48.9,48,48.9z"/>
	</g>
	<path class="st2" d="M12.7,39.7c0,0-4.2-16.2,11.7-26.7c0,0-1-2.7,1.3-5.3c0,0-17.4,0.8-19.8,23.9c0,0,1.3,1.1,1.7,1.5
		c0,0,3.1-18.6,14.1-20.7c0,0-12.4,7.9-11.9,24.6"/>
</g>
</svg>
