<?xml version="1.0" encoding="utf-8"?>
<!-- Generator: Adobe Illustrator 21.0.0, SVG Export Plug-In . SVG Version: 6.00 Build 0)  -->
<svg version="1.1" id="Layer_1" xmlns="http://www.w3.org/2000/svg" xmlns:xlink="http://www.w3.org/1999/xlink" x="0px" y="0px"
	 viewBox="0 0 174 115.7" style="enable-background:new 0 0 174 115.7;" xml:space="preserve">
<style type="text/css">
	.st0{fill:url(#SVGID_1_);}
	.st1{fill:#FFFFFF;}
</style>
<g>
	
		<linearGradient id="SVGID_1_" gradientUnits="userSpaceOnUse" x1="62.1428" y1="-14.6236" x2="112.0777" y2="-14.6236" gradientTransform="matrix(1 0 0 1 0 43.5333)">
		<stop  offset="0" style="stop-color:#592C80"/>
		<stop  offset="1" style="stop-color:#DE277F"/>
	</linearGradient>
	<path class="st0" d="M110.2,48.8c0,0,0.7-4.1,1.6-9.3c0.8-5.2,0.1-5.4-0.4-6.4s-0.3-1.9,0-3.1s-0.8-2.6-0.8-2.6s-2.6-4.7-3.4-6
		s-4.6-9.1-5.5-11.1s-2-5.6-2-5.6c-12.2-10.5-25.8,0-25.8,0C60.1,15,62.3,28.1,62.3,28.1S84.5,47.4,86,52c0,0,1,1.7,0.4,5.8
		C86.4,57.8,99.6,59.1,110.2,48.8z"/>
	<path class="st1" d="M110,29.9c0,0,0-2.3-2.5-2.4c0,0-1-0.1-1.1,0.9c0,0.4,0.1,1.1,0.9,1.1C107.8,29.5,109.3,28.8,110,29.9z"/>
	<g>
		<path class="st1" d="M111.3,33L111.3,33c-0.3-0.4-0.5-0.7-0.7-0.9c-0.2-0.2-0.5-0.2-0.7-0.1c-0.5,0.3-1.5,0.3-2.2,0.2
			c-0.8-0.1-3-3.7-3.2-4.2c-0.1-0.3-0.1-0.8-0.1-1.2c0-0.4,0.3-0.8,0.6-1c0.4-0.2,1.1-0.5,2-0.5c1.8,0.1,2.9,0.8,2.9,0.8l-3.5-6.4
			c-3.9-3.1-6.5-2.7-6.5-2.7L93.1,0.7l-2.2-0.6L97.5,17C87.1,17.7,84,24,84,24c0.7,3.1,5.7,5.2,5.7,5.2s1.8-3.9,6.8-4.4
			c3-0.3,3.8,3.3,3.8,3.3c-1.4-2.7-4.5-2.3-4.5-2.3c-4,0.5-5,4.1-5,4.1s3.1-3.1,5.7-2.9s3.3,1.5,3.5,1.8s0.8,1.2,0.8,1.2
			c-3.8,1.1-8.1,0.1-8.1,0.1c-3.9-0.1-2.6,4-2.6,4s1.4,4.1,2.9,7.9c1.4,3.6,5.3,5.4,8.9,4.1c0.2-0.1,0.3-0.1,0.3-0.1
			c3.4-1.7,6.3-0.8,6.3-0.8c2.1,0.9,1.8,3.1,1.8,3.5c0.1-0.6,0.8-4.5,1.6-9.2C112.6,34.3,111.9,34,111.3,33z M106.6,32.9
			c1.6,0,1.5,1,1.5,1s0.1,0.7,0.4,1.2s-0.2,1.3-0.4,1.4c-0.2,0.1-0.7,0.3-1.3,0c0,0-0.2,0.6-1.1,0.4c0,0,0.2-0.8-0.2-0.9
			c-0.3-0.1-2.6,0.6-3.5-0.7C102.2,35.3,105.1,32.9,106.6,32.9z M109.5,41.8c-1-2.1-2.3-2.4-3.5-2.5c-1.2-0.2-2.9,0.4-3.4,0.6
			c-0.6,0.2-2.1,0.6-2,0.6c0,0,1-1,1.4-1.3c1.1-0.8,3.2-1.9,3.2-1.9s0.4,0.6,1.2,0.6c0.7,0,1.1-0.4,1.1-0.4
			C109.7,39,109.5,41.8,109.5,41.8z"/>
		<path class="st1" d="M110.2,48.7C110.2,48.7,110.2,48.8,110.2,48.7C110.2,48.8,110.2,48.7,110.2,48.7z"/>
	</g>
	<path class="st1" d="M74.9,39.5c0,0-4.2-16.2,11.7-26.7c0,0-1-2.7,1.3-5.3c0,0-17.4,0.8-19.8,23.9c0,0,1.3,1.1,1.7,1.5
		c0,0,3.1-18.6,14.1-20.7c0,0-12.4,7.9-11.9,24.6"/>
</g>
<g>
	<path class="st1" d="M27.6,63.1v0.3c-1.2,0-2.3,0.4-3.1,1.3c-0.8,0.8-1.3,1.9-1.3,3.1v25.5c0,0.3,0.1,0.6,0.3,0.8
		c0.2,0.2,0.5,0.3,0.8,0.3v0.3h-8.2L4.6,65v25c0,0.6,0.1,1.2,0.3,1.7c0.2,0.5,0.5,1,0.9,1.4c0.4,0.4,0.8,0.7,1.4,0.9
		c0.5,0.2,1.1,0.3,1.7,0.3v0.2H0v-0.2c0.6,0,1.2-0.1,1.7-0.3c0.5-0.2,1-0.5,1.4-0.9s0.7-0.9,0.9-1.4c0.2-0.5,0.3-1.1,0.3-1.7V64.5
		c0-0.3-0.1-0.6-0.3-0.8c-0.2-0.2-0.5-0.3-0.8-0.3v-0.3h8.2L23,92.7v-25c0-0.6-0.1-1.2-0.3-1.7c-0.2-0.5-0.5-1-0.9-1.4
		s-0.9-0.7-1.4-0.9s-1.1-0.3-1.7-0.3v-0.3C18.7,63.1,27.6,63.1,27.6,63.1z"/>
	<path class="st1" d="M43.2,84.9c1,0,1.8,0.4,2.5,1.1c0.7,0.7,1.1,1.5,1.1,2.5c0,0.9-0.2,1.7-0.7,2.4s-1.1,1.4-1.9,2s-1.7,1-2.7,1.3
		c-1,0.3-2.2,0.5-3.4,0.5c-1.6,0-3-0.3-4.3-0.9c-1.3-0.6-2.4-1.4-3.2-2.4c-0.9-1-1.6-2.2-2-3.5c-0.5-1.3-0.7-2.8-0.7-4.3
		s0.2-3,0.7-4.3c0.5-1.3,1.1-2.5,2-3.5s2-1.8,3.2-2.4c1.3-0.6,2.7-0.9,4.3-0.9c1.4,0,2.8,0.3,4,0.8s2.2,1.2,3.1,2
		c0.9,0.8,1.5,1.8,2,2.8s0.7,2.1,0.7,3.1h-13v2.3v2.9c0,1.5,0.1,2.8,0.2,3.8c0.2,1,0.4,1.8,0.7,2.4c0.3,0.6,0.7,1,1.2,1.3
		c0.5,0.3,1.1,0.4,1.8,0.4c0.5,0,1-0.1,1.6-0.3c0.6-0.2,1-0.6,1.1-1.2c0.1-0.4,0-0.8-0.2-1.1c-0.3-0.3-0.5-0.5-0.7-0.8
		c-0.7-0.7-1.1-1.6-1.1-2.6s0.4-1.8,1.1-2.5C41.4,85.2,42.2,84.9,43.2,84.9z M37.1,73c-0.8,0.4-1.3,1.2-1.7,2.4
		c-0.4,1.2-0.5,2.9-0.5,5.3V81h6.4c0-0.8,0-1.6,0-2.4c0-0.8-0.1-1.6-0.3-2.3c-0.2-0.7-0.4-1.4-0.7-1.9c-0.3-0.6-0.7-1-1.3-1.3
		c-0.1,0-0.2-0.1-0.3-0.1c-0.2-0.1-0.3-0.1-0.6-0.1c-0.2,0-0.4,0-0.6,0.1C37.3,72.9,37.2,72.9,37.1,73z"/>
	<path class="st1" d="M60.4,63.1c1.1,0,2.2,0.2,3.1,0.5c1,0.3,1.8,0.8,2.5,1.3c0.7,0.6,1.2,1.2,1.6,2c0.4,0.7,0.6,1.5,0.6,2.4
		c0,1-0.4,1.8-1.1,2.5c-0.7,0.7-1.5,1.1-2.5,1.1s-1.8-0.4-2.5-1.1c-0.7-0.7-1.1-1.5-1.1-2.5s0.4-1.8,1.1-2.6
		c0.2-0.2,0.5-0.5,0.7-0.8c0.3-0.3,0.3-0.6,0.2-1.1s-0.4-0.9-0.8-1.1c-0.4-0.2-0.8-0.3-1.2-0.3c-1.1,0-1.8,0.5-2.2,1.6
		c-0.3,1.1-0.5,2.8-0.5,5.2V77v1.6h1.2c1,0,1.8-0.3,2.5-1c0.7-0.7,1-1.5,1-2.5h0.3v7.4h-0.2c0-1-0.3-1.8-1-2.5c-0.7-0.7-1.5-1-2.5-1
		h-1.2v14.2c0,0.3,0.1,0.6,0.3,0.8c0.2,0.2,0.5,0.3,0.8,0.3v0.3h-8.7h-0.7v-0.3c0.3,0,0.6-0.1,0.8-0.3c0.2-0.2,0.3-0.5,0.3-0.8v-1.3
		v-19c0-3.1,0.8-5.5,2.4-7.2C55.2,64,57.5,63.1,60.4,63.1z"/>
	<path class="st1" d="M81.7,84.9c1,0,1.8,0.4,2.5,1.1c0.7,0.7,1.1,1.5,1.1,2.5c0,0.9-0.2,1.7-0.7,2.4s-1.1,1.4-1.9,2
		c-0.8,0.6-1.7,1-2.7,1.3c-1,0.3-2.2,0.5-3.4,0.5c-1.6,0-3-0.3-4.3-0.9c-1.3-0.6-2.4-1.4-3.2-2.4c-0.9-1-1.6-2.2-2-3.5
		c-0.5-1.3-0.7-2.8-0.7-4.3s0.2-3,0.7-4.3c0.5-1.3,1.1-2.5,2-3.5s2-1.8,3.2-2.4c1.3-0.6,2.7-0.9,4.3-0.9c1.4,0,2.8,0.3,4,0.8
		s2.2,1.2,3.1,2c0.9,0.8,1.5,1.8,2,2.8s0.7,2.1,0.7,3.1h-13v2.3v2.9c0,1.5,0.1,2.8,0.2,3.8c0.2,1,0.4,1.8,0.7,2.4s0.7,1,1.2,1.3
		c0.5,0.3,1.1,0.4,1.8,0.4c0.5,0,1-0.1,1.6-0.3c0.6-0.2,1-0.6,1.1-1.2c0.1-0.4,0-0.8-0.2-1.1c-0.3-0.3-0.5-0.5-0.7-0.8
		c-0.7-0.7-1.1-1.6-1.1-2.6s0.4-1.8,1.1-2.5C79.9,85.2,80.7,84.9,81.7,84.9z M75.7,73c-0.8,0.4-1.3,1.2-1.7,2.4
		c-0.4,1.2-0.5,2.9-0.5,5.3V81h6.4c0-0.8,0-1.6,0-2.4c0-0.8-0.1-1.6-0.3-2.3c-0.2-0.7-0.4-1.4-0.7-1.9c-0.3-0.6-0.7-1-1.3-1.3
		c-0.1,0-0.2-0.1-0.3-0.1c-0.2-0.1-0.3-0.1-0.6-0.1c-0.2,0-0.4,0-0.6,0.1C75.8,72.9,75.7,72.9,75.7,73z"/>
	<path class="st1" d="M104.7,72.9c0.8,0.5,1.4,1.2,1.6,2.2c0.3,0.9,0.1,1.8-0.4,2.7c-0.5,0.9-1.2,1.4-2.2,1.7
		c-0.9,0.3-1.8,0.1-2.7-0.4s-1.4-1.2-1.7-2.2c-0.1-0.4-0.2-0.8-0.1-1.1c0-0.3,0.1-0.6,0.1-0.9c0.1-0.3,0.1-0.5,0.1-0.7
		c0-0.2-0.1-0.4-0.2-0.5c-0.1-0.1-0.3-0.2-0.5-0.1c-0.2,0-0.5,0.1-0.7,0.2c-0.2,0.1-0.5,0.2-0.7,0.4c-0.3,0.2-0.5,0.3-0.7,0.5
		c0.1,0.4,0.2,1,0.2,1.7v10v1.4v5.4c0,0.3,0.1,0.6,0.3,0.8c0.2,0.2,0.5,0.3,0.8,0.3v0.3h-0.6h-3.7h-5v-0.3c0.3,0,0.6-0.1,0.8-0.3
		c0.2-0.2,0.3-0.5,0.3-0.8v-5.4v-14c0-0.3-0.1-0.6-0.3-0.8s-0.5-0.3-0.8-0.3v-0.3h5c1.7,0,2.7,0.7,3,2c0.4-0.3,0.8-0.6,1.5-0.9
		c0.6-0.3,1.3-0.6,2-0.9c0.7-0.2,1.5-0.3,2.3-0.3C103.3,72.3,104,72.5,104.7,72.9z"/>
	<path class="st1" d="M120.8,92.6c-0.7,0.5-1.5,0.9-2.4,1.3s-1.9,0.6-2.9,0.6c-0.8,0-1.5-0.1-2.2-0.3c-0.7-0.2-1.3-0.5-1.8-1
		s-0.9-1.1-1.2-1.8c-0.3-0.7-0.4-1.6-0.4-2.7V76.3v-2.5c0-0.3-0.1-0.6-0.3-0.8s-0.5-0.3-0.8-0.3v-0.3c0.9,0,1.8-0.1,2.7-0.4
		c0.9-0.3,1.7-0.6,2.5-1.1c0.7-0.4,1.4-1,1.9-1.6c0.5-0.6,0.8-1.2,0.9-1.9h0.3v4.9h2.9v0.3h-2.9v1.1V77v12.8c0,1,0.1,1.8,0.4,2.3
		c0.2,0.5,0.5,0.8,0.9,0.9c0.4,0.1,0.8,0.1,1.3-0.1c0.5-0.2,0.9-0.4,1.4-0.7L120.8,92.6z"/>
	<path class="st1" d="M141.3,93.2c0,0.3,0.1,0.6,0.3,0.8c0.2,0.2,0.5,0.3,0.8,0.3v0.3h-5c-1,0-1.7-0.2-2.2-0.5
		c-0.5-0.4-0.8-1-0.9-1.8c-0.6,0.7-1.3,1.2-2.2,1.6c-0.9,0.4-1.8,0.7-2.8,0.7c-1,0.1-1.9,0-2.7-0.2c-0.8-0.2-1.6-0.6-2.2-1.1
		c-0.6-0.5-1.1-1.2-1.4-2c-0.3-0.8-0.4-1.7-0.3-2.7c0.1-0.9,0.3-1.7,0.8-2.3c0.4-0.6,0.9-1.2,1.5-1.6c0.6-0.5,1.3-0.9,2-1.2
		c0.7-0.3,1.5-0.6,2.3-0.8c1.6-0.5,2.7-1,3.4-1.4c0.7-0.5,1.2-0.9,1.4-1.3v-2.2c0-1.7-0.2-3-0.6-3.8c-0.4-0.8-1.1-1.2-2.2-1
		c-1.4,0.2-2.2,0.6-2.3,1.4c-0.1,0.4,0,0.8,0.3,1.1c0.3,0.3,0.5,0.5,0.8,0.8c0.3,0.3,0.6,0.7,0.8,1.1c0.2,0.4,0.3,0.9,0.3,1.4
		c0,1-0.3,1.8-1,2.5c-0.7,0.7-1.5,1-2.5,1c-1,0-1.8-0.3-2.5-1c-0.7-0.7-1-1.5-1-2.5c0-0.8,0.2-1.6,0.7-2.4c0.4-0.7,1.1-1.4,1.9-2
		c0.8-0.6,1.7-1,2.8-1.3c1-0.3,2.2-0.5,3.4-0.5s2.3,0.2,3.4,0.5c1,0.3,2,0.7,2.7,1.3c0.8,0.6,1.4,1.2,1.9,2c0.5,0.7,0.7,1.5,0.7,2.4
		v12.7v0.3V93v0.2H141.3z M133.7,92.5c0.1-0.1,0.2-0.2,0.3-0.2c0.1-0.1,0.2-0.2,0.3-0.2c0-0.2-0.1-0.4-0.1-0.7c0-0.2,0-0.5,0-0.7V89
		v-8.6c-0.4,0.5-0.9,1-1.4,1.4s-1,0.8-1.5,1.3s-0.9,1.2-1.2,2.1c-0.3,0.9-0.5,2-0.5,3.5c0,1.1,0.1,2,0.4,2.7
		c0.3,0.6,0.6,1.1,1.1,1.4c0.4,0.3,0.9,0.4,1.4,0.3C132.9,92.9,133.3,92.7,133.7,92.5z"/>
	<path class="st1" d="M160.7,72.9c0.8,0.5,1.4,1.2,1.6,2.2c0.3,0.9,0.1,1.8-0.4,2.7c-0.5,0.9-1.2,1.4-2.2,1.7
		c-0.9,0.3-1.8,0.1-2.7-0.4s-1.4-1.2-1.7-2.2c-0.1-0.4-0.2-0.8-0.1-1.1c0-0.3,0.1-0.6,0.1-0.9c0.1-0.3,0.1-0.5,0.1-0.7
		c0-0.2-0.1-0.4-0.2-0.5c-0.1-0.1-0.3-0.2-0.5-0.1c-0.2,0-0.5,0.1-0.7,0.2c-0.2,0.1-0.5,0.2-0.7,0.4c-0.3,0.2-0.5,0.3-0.7,0.5
		c0.1,0.4,0.2,1,0.2,1.7v10v1.4v5.4c0,0.3,0.1,0.6,0.3,0.8c0.2,0.2,0.5,0.3,0.8,0.3v0.3h-0.6h-3.7h-5v-0.3c0.3,0,0.6-0.1,0.8-0.3
		c0.2-0.2,0.3-0.5,0.3-0.8v-5.4v-14c0-0.3-0.1-0.6-0.3-0.8s-0.5-0.3-0.8-0.3v-0.3h5c1.7,0,2.7,0.7,3,2c0.4-0.3,0.8-0.6,1.5-0.9
		c0.6-0.3,1.3-0.6,2-0.9c0.7-0.2,1.5-0.3,2.3-0.3C159.3,72.3,160,72.5,160.7,72.9z"/>
	<path class="st1" d="M165.8,79.2v-5.3c0-0.3-0.1-0.6-0.3-0.8c-0.2-0.2-0.5-0.3-0.8-0.3v-0.3h5h3.7h0.6v0.3c-0.3,0-0.6,0.1-0.8,0.3
		c-0.2,0.2-0.3,0.5-0.3,0.8v5.3v8.6v5.4c0,0.3,0.1,0.6,0.3,0.8c0.2,0.2,0.5,0.3,0.8,0.3v0.3h-0.6h-3.7h-5v-0.3
		c0.3,0,0.6-0.1,0.8-0.3c0.2-0.2,0.3-0.5,0.3-0.8v-5.4V79.2z M173,66.7c0,1-0.4,1.8-1.1,2.5c-0.7,0.7-1.5,1-2.5,1s-1.8-0.3-2.5-1
		c-0.7-0.7-1.1-1.5-1.1-2.5s0.4-1.8,1.1-2.5c0.7-0.7,1.5-1.1,2.5-1.1s1.8,0.4,2.5,1.1C172.6,64.9,173,65.7,173,66.7z"/>
</g>
<g>
	<path class="st1" d="M145,109.3c-0.4,0-0.8,0-1.1-0.1l-0.6,0.5c0.2,0.1,0.5,0.2,0.8,0.3c0.3,0.1,0.7,0.1,1.3,0.2
		c1.1,0.1,1.8,0.3,2.3,0.7c0.4,0.4,0.7,0.9,0.7,1.5c0,0.6-0.2,1.2-0.6,1.7c-0.4,0.5-0.9,0.9-1.5,1.2c-0.6,0.3-1.4,0.4-2.2,0.4
		c-1.1,0-1.9-0.2-2.6-0.6c-0.6-0.4-1-1-1-1.7c0-0.5,0.1-0.9,0.4-1.3c0.3-0.4,0.6-0.8,1.1-1.1c-0.4-0.2-0.7-0.4-0.9-0.6l0.1-0.4
		l1.7-1.5c-0.4-0.4-0.6-1-0.6-1.6c0-0.7,0.2-1.3,0.5-1.8c0.4-0.5,0.8-1,1.4-1.3c0.6-0.3,1.3-0.5,2-0.5c0.5,0,0.9,0.1,1.3,0.2h3.2
		l-0.2,1.3l-1.4,0.1c0.1,0.3,0.1,0.6,0.1,0.9c0,0.7-0.2,1.3-0.5,1.8c-0.4,0.5-0.8,1-1.4,1.3C146.3,109.1,145.7,109.3,145,109.3z
		 M142.3,112.9c0,0.4,0.2,0.6,0.5,0.8c0.3,0.2,0.8,0.3,1.3,0.3c0.6,0,1.1-0.1,1.5-0.4c0.4-0.2,0.6-0.6,0.6-1c0-0.3-0.1-0.5-0.3-0.7
		c-0.2-0.2-0.6-0.3-1.2-0.3c-0.5,0-0.9-0.1-1.3-0.2c-0.4,0.2-0.7,0.4-0.8,0.7C142.4,112.4,142.3,112.6,142.3,112.9z M145.2,107.6
		c0.5,0,1-0.2,1.3-0.5c0.3-0.3,0.5-0.7,0.5-1.2c0-0.3-0.1-0.6-0.4-0.8s-0.6-0.3-1-0.3c-0.5,0-1,0.2-1.3,0.5
		c-0.3,0.3-0.5,0.7-0.5,1.2c0,0.3,0.1,0.6,0.4,0.8C144.5,107.6,144.8,107.6,145.2,107.6z"/>
	<path class="st1" d="M150.6,111.8l1.5-8.3h2.2l-1.5,8.3H150.6z M153.6,102.2c-0.4,0-0.7-0.1-1-0.4c-0.3-0.2-0.4-0.5-0.4-0.9
		c0-0.4,0.1-0.7,0.4-0.9c0.3-0.2,0.6-0.4,1-0.4s0.7,0.1,1,0.4c0.3,0.2,0.4,0.5,0.4,0.9c0,0.4-0.1,0.7-0.4,0.9
		C154.3,102.1,154,102.2,153.6,102.2z"/>
	<path class="st1" d="M155.1,111.8l1.5-8.3h1.9l-0.1,1.5c0.4-0.5,0.9-0.9,1.5-1.2c0.6-0.3,1.2-0.5,1.9-0.5l-0.4,2.3h-0.6
		c-0.7,0-1.3,0.2-1.8,0.5c-0.5,0.3-0.9,0.9-1,1.8l-0.7,4H155.1z"/>
	<path class="st1" d="M161.8,111.8l2.2-12.1h2.2l-2.2,12.1H161.8z"/>
	<path class="st1" d="M169.7,112c-0.8,0-1.4-0.1-1.9-0.4c-0.5-0.3-0.9-0.6-1.2-1.1c-0.3-0.4-0.4-1-0.3-1.5h2.2c0,0.4,0.1,0.7,0.4,1
		c0.3,0.2,0.7,0.4,1.2,0.4c0.5,0,0.8-0.1,1.1-0.3c0.3-0.2,0.4-0.5,0.4-0.8c0-0.3-0.1-0.5-0.4-0.6c-0.3-0.1-0.6-0.2-1.1-0.3
		c-0.5-0.1-0.9-0.3-1.3-0.4c-0.4-0.2-0.8-0.4-1.1-0.7c-0.3-0.3-0.4-0.7-0.4-1.1c0-0.5,0.2-1,0.5-1.4c0.3-0.4,0.8-0.8,1.3-1
		c0.6-0.2,1.2-0.4,1.9-0.4c1,0,1.8,0.2,2.3,0.7c0.6,0.5,0.8,1.1,0.8,1.9h-2.1c0-0.3-0.1-0.5-0.4-0.7c-0.2-0.2-0.6-0.3-0.9-0.3
		c-0.4,0-0.7,0.1-1,0.3s-0.4,0.4-0.4,0.6c0,0.2,0.1,0.4,0.4,0.6c0.3,0.1,0.7,0.3,1.2,0.4c0.5,0.1,1,0.3,1.4,0.5
		c0.4,0.2,0.8,0.4,1,0.7c0.3,0.3,0.4,0.7,0.4,1.1c0,0.6-0.2,1.1-0.5,1.6c-0.3,0.4-0.8,0.8-1.4,1C171.1,111.8,170.4,112,169.7,112z"
		/>
</g>
</svg>
