<?xml version="1.0" encoding="utf-8"?>
<!-- Generator: Adobe Illustrator 21.0.0, SVG Export Plug-In . SVG Version: 6.00 Build 0)  -->
<svg version="1.1" id="Layer_1" xmlns="http://www.w3.org/2000/svg" xmlns:xlink="http://www.w3.org/1999/xlink" x="0px" y="0px"
	 viewBox="0 0 240 58" style="enable-background:new 0 0 240 58;" xml:space="preserve">
<style type="text/css">
	.st0{fill:url(#SVGID_1_);}
	.st1{fill:#FFFFFF;}
	.st2{fill:#0D0F21;}
	.st3{fill:#592C80;}
</style>
<linearGradient id="SVGID_1_" gradientUnits="userSpaceOnUse" x1="0" y1="18.9097" x2="49.9349" y2="18.9097" gradientTransform="matrix(1 0 0 1 0 10)">
	<stop  offset="0" style="stop-color:#592C80"/>
	<stop  offset="1" style="stop-color:#DE277F"/>
</linearGradient>
<path class="st0" d="M48,48.8c0,0,0.7-4.1,1.6-9.3c0.8-5.2,0.1-5.4-0.4-6.4s-0.3-1.9,0-3.1s-0.8-2.6-0.8-2.6s-2.6-4.7-3.4-6
	s-4.6-9.1-5.5-11.1s-2-5.6-2-5.6c-12.2-10.5-25.8,0-25.8,0C-2.1,15,0.1,28.1,0.1,28.1S22.3,47.4,23.8,52c0,0,1,1.7,0.4,5.8
	C24.2,57.8,37.4,59.1,48,48.8z"/>
<path class="st1" d="M47.8,29.9c0,0,0-2.3-2.5-2.4c0,0-1-0.1-1.1,0.9c0,0.4,0.1,1.1,0.9,1.1C45.6,29.5,47.1,28.8,47.8,29.9z"/>
<g>
	<path class="st1" d="M49.1,33L49.1,33c-0.3-0.4-0.5-0.7-0.7-0.9c-0.2-0.2-0.5-0.2-0.7-0.1c-0.5,0.3-1.5,0.3-2.2,0.2
		c-0.8-0.1-3-3.7-3.2-4.2c-0.1-0.3-0.1-0.8-0.1-1.2c0-0.4,0.3-0.8,0.6-1c0.4-0.2,1.1-0.5,2-0.5c1.8,0.1,2.9,0.8,2.9,0.8l-3.5-6.3
		c-3.9-3.1-6.5-2.7-6.5-2.7L30.9,0.7l-2.2-0.6L35.3,17c-10.4,0.7-13.5,7-13.5,7c0.7,3.1,5.7,5.2,5.7,5.2s1.8-3.9,6.8-4.4
		c3-0.3,3.8,3.3,3.8,3.3c-1.4-2.7-4.5-2.3-4.5-2.3c-4,0.5-5,4.1-5,4.1s3.1-3.1,5.7-2.9s3.3,1.5,3.5,1.8s0.8,1.2,0.8,1.2
		c-3.8,1.1-8.1,0.1-8.1,0.1c-3.9-0.1-2.6,4-2.6,4s1.4,4.1,2.9,7.9c1.4,3.6,5.3,5.4,8.9,4.1C39.9,46,40,46,40,46
		c3.4-1.7,6.3-0.8,6.3-0.8c2.1,0.9,1.8,3.1,1.8,3.5c0.1-0.6,0.8-4.5,1.6-9.2C50.4,34.3,49.7,34,49.1,33z M44.4,32.9
		c1.6,0,1.5,1,1.5,1s0.1,0.7,0.4,1.2c0.3,0.5-0.2,1.3-0.4,1.4s-0.7,0.3-1.3,0c0,0-0.2,0.6-1.1,0.4c0,0,0.2-0.8-0.2-0.9
		c-0.3-0.1-2.6,0.6-3.5-0.7C40,35.3,42.9,32.9,44.4,32.9z M47.3,41.8c-1-2.1-2.3-2.4-3.5-2.5c-1.2-0.2-2.9,0.4-3.4,0.6
		c-0.6,0.2-2.1,0.6-2,0.6c0,0,1-1,1.4-1.3c1.1-0.8,3.2-1.9,3.2-1.9s0.4,0.6,1.2,0.6c0.7,0,1.1-0.4,1.1-0.4
		C47.5,39,47.3,41.8,47.3,41.8z"/>
	<path class="st1" d="M48,48.7C48,48.7,48,48.8,48,48.7C48,48.8,48,48.7,48,48.7z"/>
</g>
<path class="st1" d="M12.7,39.5c0,0-4.2-16.2,11.7-26.7c0,0-1-2.7,1.3-5.3c0,0-17.4,0.8-19.8,23.9c0,0,1.3,1.1,1.7,1.5
	c0,0,3.1-18.6,14.1-20.7c0,0-12.4,7.9-11.9,24.6"/>
<g>
	<path class="st2" d="M93.5,3v0.3c-1.2,0-2.3,0.4-3.1,1.3c-0.8,0.8-1.3,1.9-1.3,3.1v25.5c0,0.3,0.1,0.6,0.3,0.8
		c0.2,0.2,0.5,0.3,0.8,0.3v0.3H82L70.5,4.9v25c0,0.6,0.1,1.2,0.3,1.7c0.2,0.5,0.5,1,0.9,1.4s0.8,0.7,1.4,0.9
		c0.5,0.2,1.1,0.3,1.7,0.3v0.2h-8.9v-0.2c0.6,0,1.2-0.1,1.7-0.3s1-0.5,1.4-0.9s0.7-0.9,0.9-1.4c0.2-0.5,0.3-1.1,0.3-1.7V4.4
		c0-0.3-0.1-0.6-0.3-0.8c-0.2-0.2-0.5-0.3-0.8-0.3V3h8.2l11.6,29.6v-25c0-0.6-0.1-1.2-0.3-1.7c-0.2-0.5-0.5-1-0.9-1.4
		s-0.9-0.7-1.4-0.9s-1.1-0.3-1.7-0.3V3C84.6,3,93.5,3,93.5,3z"/>
	<path class="st2" d="M109.1,24.8c1,0,1.8,0.4,2.5,1.1s1.1,1.5,1.1,2.5c0,0.9-0.2,1.7-0.7,2.4s-1.1,1.4-1.9,2s-1.7,1-2.7,1.3
		s-2.2,0.5-3.4,0.5c-1.6,0-3-0.3-4.3-0.9c-1.3-0.6-2.4-1.4-3.2-2.4c-0.9-1-1.6-2.2-2-3.5c-0.5-1.3-0.7-2.8-0.7-4.3s0.2-3,0.7-4.3
		s1.1-2.5,2-3.5s2-1.8,3.2-2.4c1.3-0.6,2.7-0.9,4.3-0.9c1.4,0,2.8,0.3,4,0.8s2.2,1.2,3.1,2s1.5,1.8,2,2.8s0.7,2.1,0.7,3.1h-13v2.3
		v2.9c0,1.5,0.1,2.8,0.2,3.8c0.2,1,0.4,1.8,0.7,2.4c0.3,0.6,0.7,1,1.2,1.3s1.1,0.4,1.8,0.4c0.5,0,1-0.1,1.6-0.3s1-0.6,1.1-1.2
		c0.1-0.4,0-0.8-0.2-1.1c-0.3-0.3-0.5-0.5-0.7-0.8c-0.7-0.7-1.1-1.6-1.1-2.6s0.4-1.8,1.1-2.5C107.3,25.1,108.1,24.8,109.1,24.8z
		 M103,12.9c-0.8,0.4-1.3,1.2-1.7,2.4c-0.4,1.2-0.5,2.9-0.5,5.3v0.3h6.4c0-0.8,0-1.6,0-2.4s-0.1-1.6-0.3-2.3
		c-0.2-0.7-0.4-1.4-0.7-1.9c-0.3-0.6-0.7-1-1.3-1.3c-0.1,0-0.2-0.1-0.3-0.1c-0.2-0.1-0.3-0.1-0.6-0.1c-0.2,0-0.4,0-0.6,0.1
		C103.2,12.8,103.1,12.8,103,12.9z"/>
	<path class="st2" d="M126.3,3c1.1,0,2.2,0.2,3.1,0.5c1,0.3,1.8,0.8,2.5,1.3c0.7,0.6,1.2,1.2,1.6,2c0.4,0.7,0.6,1.5,0.6,2.4
		c0,1-0.4,1.8-1.1,2.5c-0.7,0.7-1.5,1.1-2.5,1.1s-1.8-0.4-2.5-1.1c-0.7-0.7-1.1-1.5-1.1-2.5s0.4-1.8,1.1-2.6
		c0.2-0.2,0.5-0.5,0.7-0.8c0.3-0.3,0.3-0.6,0.2-1.1s-0.4-0.9-0.8-1.1c-0.4-0.2-0.8-0.3-1.2-0.3c-1.1,0-1.8,0.5-2.2,1.6
		c-0.3,1.1-0.5,2.8-0.5,5.2v6.8v1.6h1.2c1,0,1.8-0.3,2.5-1c0.7-0.7,1-1.5,1-2.5h0.3v7.4H129c0-1-0.3-1.8-1-2.5c-0.7-0.7-1.5-1-2.5-1
		h-1.2v14.2c0,0.3,0.1,0.6,0.3,0.8c0.2,0.2,0.5,0.3,0.8,0.3v0.3h-8.7H116v-0.3c0.3,0,0.6-0.1,0.8-0.3c0.2-0.2,0.3-0.5,0.3-0.8v-1.3
		v-19c0-3.1,0.8-5.5,2.4-7.2C121.1,3.9,123.4,3,126.3,3z"/>
	<path class="st2" d="M147.6,24.8c1,0,1.8,0.4,2.5,1.1s1.1,1.5,1.1,2.5c0,0.9-0.2,1.7-0.7,2.4s-1.1,1.4-1.9,2
		c-0.8,0.6-1.7,1-2.7,1.3s-2.2,0.5-3.4,0.5c-1.6,0-3-0.3-4.3-0.9c-1.3-0.6-2.4-1.4-3.2-2.4c-0.9-1-1.6-2.2-2-3.5
		c-0.5-1.3-0.7-2.8-0.7-4.3s0.2-3,0.7-4.3s1.1-2.5,2-3.5s2-1.8,3.2-2.4c1.3-0.6,2.7-0.9,4.3-0.9c1.4,0,2.8,0.3,4,0.8s2.2,1.2,3.1,2
		c0.9,0.8,1.5,1.8,2,2.8s0.7,2.1,0.7,3.1h-13v2.3v2.9c0,1.5,0.1,2.8,0.2,3.8c0.2,1,0.4,1.8,0.7,2.4c0.3,0.6,0.7,1,1.2,1.3
		s1.1,0.4,1.8,0.4c0.5,0,1-0.1,1.6-0.3s1-0.6,1.1-1.2c0.1-0.4,0-0.8-0.2-1.1c-0.3-0.3-0.5-0.5-0.7-0.8c-0.7-0.7-1.1-1.6-1.1-2.6
		s0.4-1.8,1.1-2.5C145.8,25.1,146.6,24.8,147.6,24.8z M141.6,12.9c-0.8,0.4-1.3,1.2-1.7,2.4s-0.5,2.9-0.5,5.3v0.3h6.4
		c0-0.8,0-1.6,0-2.4s-0.1-1.6-0.3-2.3c-0.2-0.7-0.4-1.4-0.7-1.9c-0.3-0.6-0.7-1-1.3-1.3c-0.1,0-0.2-0.1-0.3-0.1
		c-0.2-0.1-0.3-0.1-0.6-0.1c-0.2,0-0.4,0-0.6,0.1C141.7,12.8,141.6,12.8,141.6,12.9z"/>
	<path class="st2" d="M170.6,12.8c0.8,0.5,1.4,1.2,1.6,2.2c0.3,0.9,0.1,1.8-0.4,2.7s-1.2,1.4-2.2,1.7c-0.9,0.3-1.8,0.1-2.7-0.4
		s-1.4-1.2-1.7-2.2c-0.1-0.4-0.2-0.8-0.1-1.1c0-0.3,0.1-0.6,0.1-0.9c0.1-0.3,0.1-0.5,0.1-0.7s-0.1-0.4-0.2-0.5
		c-0.1-0.1-0.3-0.2-0.5-0.1c-0.2,0-0.5,0.1-0.7,0.2s-0.5,0.2-0.7,0.4c-0.3,0.2-0.5,0.3-0.7,0.5c0.1,0.4,0.2,1,0.2,1.7v10v1.4v5.4
		c0,0.3,0.1,0.6,0.3,0.8s0.5,0.3,0.8,0.3v0.3h-0.6h-3.7h-5v-0.3c0.3,0,0.6-0.1,0.8-0.3s0.3-0.5,0.3-0.8v-5.4v-14
		c0-0.3-0.1-0.6-0.3-0.8s-0.5-0.3-0.8-0.3v-0.3h5c1.7,0,2.7,0.7,3,2c0.4-0.3,0.8-0.6,1.5-0.9c0.6-0.3,1.3-0.6,2-0.9
		c0.7-0.2,1.5-0.3,2.3-0.3C169.2,12.2,169.9,12.4,170.6,12.8z"/>
	<path class="st2" d="M186.7,32.5c-0.7,0.5-1.5,0.9-2.4,1.3c-0.9,0.4-1.9,0.6-2.9,0.6c-0.8,0-1.5-0.1-2.2-0.3s-1.3-0.5-1.8-1
		s-0.9-1.1-1.2-1.8s-0.4-1.6-0.4-2.7V16.2v-2.5c0-0.3-0.1-0.6-0.3-0.8s-0.5-0.3-0.8-0.3v-0.3c0.9,0,1.8-0.1,2.7-0.4s1.7-0.6,2.5-1.1
		c0.7-0.4,1.4-1,1.9-1.6s0.8-1.2,0.9-1.9h0.3v4.9h2.9v0.3H183v1.1v3.3v12.8c0,1,0.1,1.8,0.4,2.3c0.2,0.5,0.5,0.8,0.9,0.9
		c0.4,0.1,0.8,0.1,1.3-0.1c0.5-0.2,0.9-0.4,1.4-0.7L186.7,32.5z"/>
	<path class="st2" d="M207.2,33.1c0,0.3,0.1,0.6,0.3,0.8s0.5,0.3,0.8,0.3v0.3h-5c-1,0-1.7-0.2-2.2-0.5c-0.5-0.4-0.8-1-0.9-1.8
		c-0.6,0.7-1.3,1.2-2.2,1.6c-0.9,0.4-1.8,0.7-2.8,0.7c-1,0.1-1.9,0-2.7-0.2s-1.6-0.6-2.2-1.1c-0.6-0.5-1.1-1.2-1.4-2
		c-0.3-0.8-0.4-1.7-0.3-2.7c0.1-0.9,0.3-1.7,0.8-2.3c0.4-0.6,0.9-1.2,1.5-1.6c0.6-0.5,1.3-0.9,2-1.2c0.7-0.3,1.5-0.6,2.3-0.8
		c1.6-0.5,2.7-1,3.4-1.4c0.7-0.5,1.2-0.9,1.4-1.3v-2.2c0-1.7-0.2-3-0.6-3.8c-0.4-0.8-1.1-1.2-2.2-1c-1.4,0.2-2.2,0.6-2.3,1.4
		c-0.1,0.4,0,0.8,0.3,1.1s0.5,0.5,0.8,0.8s0.6,0.7,0.8,1.1s0.3,0.9,0.3,1.4c0,1-0.3,1.8-1,2.5s-1.5,1-2.5,1s-1.8-0.3-2.5-1
		s-1-1.5-1-2.5c0-0.8,0.2-1.6,0.7-2.4c0.4-0.7,1.1-1.4,1.9-2c0.8-0.6,1.7-1,2.8-1.3c1-0.3,2.2-0.5,3.4-0.5s2.3,0.2,3.4,0.5
		c1,0.3,2,0.7,2.7,1.3c0.8,0.6,1.4,1.2,1.9,2c0.5,0.7,0.7,1.5,0.7,2.4v12.7v0.3v1.2v0.2H207.2z M199.6,32.4c0.1-0.1,0.2-0.2,0.3-0.2
		c0.1-0.1,0.2-0.2,0.3-0.2c0-0.2-0.1-0.4-0.1-0.7c0-0.2,0-0.5,0-0.7v-1.7v-8.6c-0.4,0.5-0.9,1-1.4,1.4s-1,0.8-1.5,1.3
		s-0.9,1.2-1.2,2.1s-0.5,2-0.5,3.5c0,1.1,0.1,2,0.4,2.7c0.3,0.6,0.6,1.1,1.1,1.4c0.4,0.3,0.9,0.4,1.4,0.3
		C198.8,32.8,199.2,32.6,199.6,32.4z"/>
	<path class="st2" d="M226.6,12.8c0.8,0.5,1.4,1.2,1.6,2.2c0.3,0.9,0.1,1.8-0.4,2.7s-1.2,1.4-2.2,1.7c-0.9,0.3-1.8,0.1-2.7-0.4
		s-1.4-1.2-1.7-2.2c-0.1-0.4-0.2-0.8-0.1-1.1c0-0.3,0.1-0.6,0.1-0.9c0.1-0.3,0.1-0.5,0.1-0.7s-0.1-0.4-0.2-0.5
		c-0.1-0.1-0.3-0.2-0.5-0.1c-0.2,0-0.5,0.1-0.7,0.2s-0.5,0.2-0.7,0.4c-0.3,0.2-0.5,0.3-0.7,0.5c0.1,0.4,0.2,1,0.2,1.7v10v1.4v5.4
		c0,0.3,0.1,0.6,0.3,0.8s0.5,0.3,0.8,0.3v0.3h-0.6h-3.7h-5v-0.3c0.3,0,0.6-0.1,0.8-0.3s0.3-0.5,0.3-0.8v-5.4v-14
		c0-0.3-0.1-0.6-0.3-0.8s-0.5-0.3-0.8-0.3v-0.3h5c1.7,0,2.7,0.7,3,2c0.4-0.3,0.8-0.6,1.5-0.9c0.6-0.3,1.3-0.6,2-0.9
		c0.7-0.2,1.5-0.3,2.3-0.3C225.2,12.2,225.9,12.4,226.6,12.8z"/>
	<path class="st2" d="M231.7,19.1v-5.3c0-0.3-0.1-0.6-0.3-0.8s-0.5-0.3-0.8-0.3v-0.3h5h3.7h0.6v0.3c-0.3,0-0.6,0.1-0.8,0.3
		s-0.3,0.5-0.3,0.8v5.3v8.6v5.4c0,0.3,0.1,0.6,0.3,0.8s0.5,0.3,0.8,0.3v0.3h-0.6h-3.7h-5v-0.3c0.3,0,0.6-0.1,0.8-0.3
		s0.3-0.5,0.3-0.8v-5.4V19.1z M238.9,6.6c0,1-0.4,1.8-1.1,2.5c-0.7,0.7-1.5,1-2.5,1s-1.8-0.3-2.5-1s-1.1-1.5-1.1-2.5
		s0.4-1.8,1.1-2.5c0.7-0.7,1.5-1.1,2.5-1.1s1.8,0.4,2.5,1.1C238.5,4.8,238.9,5.6,238.9,6.6z"/>
</g>
<g>
	<path class="st3" d="M210.9,49.2c-0.4,0-0.8,0-1.1-0.1l-0.6,0.5c0.2,0.1,0.5,0.2,0.8,0.3c0.3,0.1,0.7,0.1,1.3,0.2
		c1.1,0.1,1.8,0.3,2.3,0.7c0.4,0.4,0.7,0.9,0.7,1.5c0,0.6-0.2,1.2-0.6,1.7c-0.4,0.5-0.9,0.9-1.5,1.2c-0.6,0.3-1.4,0.4-2.2,0.4
		c-1.1,0-1.9-0.2-2.6-0.6c-0.6-0.4-1-1-1-1.7c0-0.5,0.1-0.9,0.4-1.3c0.3-0.4,0.6-0.8,1.1-1.1c-0.4-0.2-0.7-0.4-0.9-0.6l0.1-0.4
		l1.7-1.5c-0.4-0.4-0.6-1-0.6-1.6c0-0.7,0.2-1.3,0.5-1.8c0.4-0.5,0.8-1,1.4-1.3c0.6-0.3,1.3-0.5,2-0.5c0.5,0,0.9,0.1,1.3,0.2h3.2
		l-0.2,1.3l-1.4,0.1c0.1,0.3,0.1,0.6,0.1,0.9c0,0.7-0.2,1.3-0.5,1.8c-0.4,0.5-0.8,1-1.4,1.3C212.3,49,211.6,49.2,210.9,49.2z
		 M208.3,52.8c0,0.4,0.2,0.6,0.5,0.8c0.3,0.2,0.8,0.3,1.3,0.3c0.6,0,1.1-0.1,1.5-0.4c0.4-0.2,0.6-0.6,0.6-1c0-0.3-0.1-0.5-0.3-0.7
		c-0.2-0.2-0.6-0.3-1.2-0.3c-0.5,0-0.9-0.1-1.3-0.2c-0.4,0.2-0.7,0.4-0.8,0.7C208.4,52.3,208.3,52.5,208.3,52.8z M211.2,47.5
		c0.5,0,1-0.2,1.3-0.5c0.3-0.3,0.5-0.7,0.5-1.2c0-0.3-0.1-0.6-0.4-0.8c-0.2-0.2-0.6-0.3-1-0.3c-0.5,0-1,0.2-1.3,0.5
		c-0.3,0.3-0.5,0.7-0.5,1.2c0,0.3,0.1,0.6,0.4,0.8C210.4,47.5,210.8,47.5,211.2,47.5z"/>
	<path class="st3" d="M216.5,51.7l1.5-8.3h2.2l-1.5,8.3H216.5z M219.5,42.1c-0.4,0-0.7-0.1-1-0.4c-0.3-0.2-0.4-0.5-0.4-0.9
		c0-0.4,0.1-0.7,0.4-0.9c0.3-0.2,0.6-0.4,1-0.4c0.4,0,0.7,0.1,1,0.4c0.3,0.2,0.4,0.5,0.4,0.9c0,0.4-0.1,0.7-0.4,0.9
		C220.2,42,219.9,42.1,219.5,42.1z"/>
	<path class="st3" d="M221,51.7l1.5-8.3h1.9l-0.1,1.5c0.4-0.5,0.9-0.9,1.5-1.2s1.2-0.5,1.9-0.5l-0.4,2.3h-0.6
		c-0.7,0-1.3,0.2-1.8,0.5c-0.5,0.3-0.9,0.9-1,1.8l-0.7,4H221z"/>
	<path class="st3" d="M227.7,51.7l2.2-12.1h2.2l-2.2,12.1H227.7z"/>
	<path class="st3" d="M235.6,51.9c-0.8,0-1.4-0.1-1.9-0.4c-0.5-0.3-0.9-0.6-1.2-1.1c-0.3-0.4-0.4-1-0.3-1.5h2.2c0,0.4,0.1,0.7,0.4,1
		c0.3,0.2,0.7,0.4,1.2,0.4c0.5,0,0.8-0.1,1.1-0.3c0.3-0.2,0.4-0.5,0.4-0.8c0-0.3-0.1-0.5-0.4-0.6c-0.3-0.1-0.6-0.2-1.1-0.3
		c-0.5-0.1-0.9-0.3-1.3-0.4c-0.4-0.2-0.8-0.4-1.1-0.7c-0.3-0.3-0.4-0.7-0.4-1.1c0-0.5,0.2-1,0.5-1.4c0.3-0.4,0.8-0.8,1.3-1
		c0.6-0.2,1.2-0.4,1.9-0.4c1,0,1.8,0.2,2.3,0.7c0.6,0.5,0.8,1.1,0.8,1.9h-2.1c0-0.3-0.1-0.5-0.4-0.7s-0.6-0.3-0.9-0.3
		c-0.4,0-0.7,0.1-1,0.3c-0.3,0.2-0.4,0.4-0.4,0.6c0,0.2,0.1,0.4,0.4,0.6s0.7,0.3,1.2,0.4c0.5,0.1,1,0.3,1.4,0.5
		c0.4,0.2,0.8,0.4,1,0.7c0.3,0.3,0.4,0.7,0.4,1.1c0,0.6-0.2,1.1-0.5,1.6c-0.3,0.4-0.8,0.8-1.4,1C237.1,51.7,236.4,51.9,235.6,51.9z"
		/>
</g>
</svg>
